<svg xmlns="http://www.w3.org/2000/svg" width="720" height="300" font-family="monospace" font-size="12">
<rect width="720" height="300" fill="white"/>
<polyline fill="none" stroke="#e8730a" stroke-width="2" points="40.0,259.3 104.0,258.7 270.4,255.3 283.2,254.6 296.0,253.3 308.8,248.6 321.6,242.6 334.4,233.2 347.2,219.8 360.0,198.3 372.8,193.6 385.6,192.9 398.4,186.9 411.2,178.8 424.0,169.5 436.8,158.0 449.6,156.0 462.4,153.4 552.0,152.0 564.8,142.0 577.6,133.9 590.4,109.8 603.2,86.3 616.0,74.9 628.8,73.5 641.6,70.2 654.4,66.2 667.2,49.4 680.0,40.0"/>
<circle cx="40.0" cy="259.3" r="2.5" fill="#e8730a"/>
<circle cx="104.0" cy="258.7" r="2.5" fill="#e8730a"/>
<circle cx="270.4" cy="255.3" r="2.5" fill="#e8730a"/>
<circle cx="283.2" cy="254.6" r="2.5" fill="#e8730a"/>
<circle cx="296.0" cy="253.3" r="2.5" fill="#e8730a"/>
<circle cx="308.8" cy="248.6" r="2.5" fill="#e8730a"/>
<circle cx="321.6" cy="242.6" r="2.5" fill="#e8730a"/>
<circle cx="334.4" cy="233.2" r="2.5" fill="#e8730a"/>
<circle cx="347.2" cy="219.8" r="2.5" fill="#e8730a"/>
<circle cx="360.0" cy="198.3" r="2.5" fill="#e8730a"/>
<circle cx="372.8" cy="193.6" r="2.5" fill="#e8730a"/>
<circle cx="385.6" cy="192.9" r="2.5" fill="#e8730a"/>
<circle cx="398.4" cy="186.9" r="2.5" fill="#e8730a"/>
<circle cx="411.2" cy="178.8" r="2.5" fill="#e8730a"/>
<circle cx="424.0" cy="169.5" r="2.5" fill="#e8730a"/>
<circle cx="436.8" cy="158.0" r="2.5" fill="#e8730a"/>
<circle cx="449.6" cy="156.0" r="2.5" fill="#e8730a"/>
<circle cx="462.4" cy="153.4" r="2.5" fill="#e8730a"/>
<circle cx="552.0" cy="152.0" r="2.5" fill="#e8730a"/>
<circle cx="564.8" cy="142.0" r="2.5" fill="#e8730a"/>
<circle cx="577.6" cy="133.9" r="2.5" fill="#e8730a"/>
<circle cx="590.4" cy="109.8" r="2.5" fill="#e8730a"/>
<circle cx="603.2" cy="86.3" r="2.5" fill="#e8730a"/>
<circle cx="616.0" cy="74.9" r="2.5" fill="#e8730a"/>
<circle cx="628.8" cy="73.5" r="2.5" fill="#e8730a"/>
<circle cx="641.6" cy="70.2" r="2.5" fill="#e8730a"/>
<circle cx="654.4" cy="66.2" r="2.5" fill="#e8730a"/>
<circle cx="667.2" cy="49.4" r="2.5" fill="#e8730a"/>
<circle cx="680.0" cy="40.0" r="2.5" fill="#e8730a"/>
<text x="40" y="288">2026-05-20</text>
<text x="610" y="288">2026-07-09</text>
<text x="40" y="20">cumulative bugs surfaced: 328</text>
</svg>