<svg xmlns="http://www.w3.org/2000/svg" width="720" height="300" font-family="monospace" font-size="12">
<rect width="720" height="300" fill="white"/>
<polyline fill="none" stroke="#e8730a" stroke-width="2" points="40.0,257.5 168.0,254.9 500.8,242.3 526.4,239.8 552.0,234.7 577.6,217.0 603.2,194.3 628.8,158.9 654.4,108.3 680.0,40.0"/>
<circle cx="40.0" cy="257.5" r="2.5" fill="#e8730a"/>
<circle cx="168.0" cy="254.9" r="2.5" fill="#e8730a"/>
<circle cx="500.8" cy="242.3" r="2.5" fill="#e8730a"/>
<circle cx="526.4" cy="239.8" r="2.5" fill="#e8730a"/>
<circle cx="552.0" cy="234.7" r="2.5" fill="#e8730a"/>
<circle cx="577.6" cy="217.0" r="2.5" fill="#e8730a"/>
<circle cx="603.2" cy="194.3" r="2.5" fill="#e8730a"/>
<circle cx="628.8" cy="158.9" r="2.5" fill="#e8730a"/>
<circle cx="654.4" cy="108.3" r="2.5" fill="#e8730a"/>
<circle cx="680.0" cy="40.0" r="2.5" fill="#e8730a"/>
<text x="40" y="288">2026-05-20</text>
<text x="610" y="288">2026-06-14</text>
<text x="40" y="20">cumulative bugs surfaced: 87</text>
</svg>