<svg xmlns="http://www.w3.org/2000/svg" width="720" height="300" font-family="monospace" font-size="12">
<rect width="720" height="300" fill="white"/>
<polyline fill="none" stroke="#e8730a" stroke-width="2" points="40.0,258.0 154.3,255.9 451.4,245.7 474.3,243.7 497.1,239.6 520.0,225.4 542.9,207.0 565.7,178.5 588.6,137.8 611.4,72.6 634.3,58.3 657.1,56.3 680.0,40.0"/>
<circle cx="40.0" cy="258.0" r="2.5" fill="#e8730a"/>
<circle cx="154.3" cy="255.9" r="2.5" fill="#e8730a"/>
<circle cx="451.4" cy="245.7" r="2.5" fill="#e8730a"/>
<circle cx="474.3" cy="243.7" r="2.5" fill="#e8730a"/>
<circle cx="497.1" cy="239.6" r="2.5" fill="#e8730a"/>
<circle cx="520.0" cy="225.4" r="2.5" fill="#e8730a"/>
<circle cx="542.9" cy="207.0" r="2.5" fill="#e8730a"/>
<circle cx="565.7" cy="178.5" r="2.5" fill="#e8730a"/>
<circle cx="588.6" cy="137.8" r="2.5" fill="#e8730a"/>
<circle cx="611.4" cy="72.6" r="2.5" fill="#e8730a"/>
<circle cx="634.3" cy="58.3" r="2.5" fill="#e8730a"/>
<circle cx="657.1" cy="56.3" r="2.5" fill="#e8730a"/>
<circle cx="680.0" cy="40.0" r="2.5" fill="#e8730a"/>
<text x="40" y="288">2026-05-20</text>
<text x="610" y="288">2026-06-17</text>
<text x="40" y="20">cumulative bugs surfaced: 108</text>
</svg>