<svg xmlns="http://www.w3.org/2000/svg" width="720" height="300" font-family="monospace" font-size="12">
<rect width="720" height="300" fill="white"/>
<polyline fill="none" stroke="#e8730a" stroke-width="2" points="40.0,258.2 146.7,256.5 424.0,247.7 445.3,245.9 466.7,242.4 488.0,230.1 509.3,214.2 530.7,189.6 552.0,154.4 573.3,98.1 594.7,85.8 616.0,84.0 637.3,68.2 658.7,47.0 680.0,40.0"/>
<circle cx="40.0" cy="258.2" r="2.5" fill="#e8730a"/>
<circle cx="146.7" cy="256.5" r="2.5" fill="#e8730a"/>
<circle cx="424.0" cy="247.7" r="2.5" fill="#e8730a"/>
<circle cx="445.3" cy="245.9" r="2.5" fill="#e8730a"/>
<circle cx="466.7" cy="242.4" r="2.5" fill="#e8730a"/>
<circle cx="488.0" cy="230.1" r="2.5" fill="#e8730a"/>
<circle cx="509.3" cy="214.2" r="2.5" fill="#e8730a"/>
<circle cx="530.7" cy="189.6" r="2.5" fill="#e8730a"/>
<circle cx="552.0" cy="154.4" r="2.5" fill="#e8730a"/>
<circle cx="573.3" cy="98.1" r="2.5" fill="#e8730a"/>
<circle cx="594.7" cy="85.8" r="2.5" fill="#e8730a"/>
<circle cx="616.0" cy="84.0" r="2.5" fill="#e8730a"/>
<circle cx="637.3" cy="68.2" r="2.5" fill="#e8730a"/>
<circle cx="658.7" cy="47.0" r="2.5" fill="#e8730a"/>
<circle cx="680.0" cy="40.0" r="2.5" fill="#e8730a"/>
<text x="40" y="288">2026-05-20</text>
<text x="610" y="288">2026-06-19</text>
<text x="40" y="20">cumulative bugs surfaced: 125</text>
</svg>