<svg xmlns="http://www.w3.org/2000/svg" width="720" height="300" font-family="monospace" font-size="12">
<rect width="720" height="300" fill="white"/>
<polyline fill="none" stroke="#e8730a" stroke-width="2" points="40.0,258.8 114.4,257.7 307.9,251.9 322.8,250.7 337.7,248.4 352.6,240.3 367.4,229.9 382.3,213.7 397.2,190.5 412.1,153.5 427.0,145.4 441.9,144.2 456.7,133.8 471.6,119.9 486.5,103.7 501.4,84.0 516.3,80.5 531.2,75.9 635.3,73.6 650.2,56.2 665.1,42.3 680.0,40.0"/>
<circle cx="40.0" cy="258.8" r="2.5" fill="#e8730a"/>
<circle cx="114.4" cy="257.7" r="2.5" fill="#e8730a"/>
<circle cx="307.9" cy="251.9" r="2.5" fill="#e8730a"/>
<circle cx="322.8" cy="250.7" r="2.5" fill="#e8730a"/>
<circle cx="337.7" cy="248.4" r="2.5" fill="#e8730a"/>
<circle cx="352.6" cy="240.3" r="2.5" fill="#e8730a"/>
<circle cx="367.4" cy="229.9" r="2.5" fill="#e8730a"/>
<circle cx="382.3" cy="213.7" r="2.5" fill="#e8730a"/>
<circle cx="397.2" cy="190.5" r="2.5" fill="#e8730a"/>
<circle cx="412.1" cy="153.5" r="2.5" fill="#e8730a"/>
<circle cx="427.0" cy="145.4" r="2.5" fill="#e8730a"/>
<circle cx="441.9" cy="144.2" r="2.5" fill="#e8730a"/>
<circle cx="456.7" cy="133.8" r="2.5" fill="#e8730a"/>
<circle cx="471.6" cy="119.9" r="2.5" fill="#e8730a"/>
<circle cx="486.5" cy="103.7" r="2.5" fill="#e8730a"/>
<circle cx="501.4" cy="84.0" r="2.5" fill="#e8730a"/>
<circle cx="516.3" cy="80.5" r="2.5" fill="#e8730a"/>
<circle cx="531.2" cy="75.9" r="2.5" fill="#e8730a"/>
<circle cx="635.3" cy="73.6" r="2.5" fill="#e8730a"/>
<circle cx="650.2" cy="56.2" r="2.5" fill="#e8730a"/>
<circle cx="665.1" cy="42.3" r="2.5" fill="#e8730a"/>
<circle cx="680.0" cy="40.0" r="2.5" fill="#e8730a"/>
<text x="40" y="288">2026-05-20</text>
<text x="610" y="288">2026-07-02</text>
<text x="40" y="20">cumulative bugs surfaced: 190</text>
</svg>