<svg xmlns="http://www.w3.org/2000/svg" width="720" height="300" font-family="monospace" font-size="12">
<rect width="720" height="300" fill="white"/>
<polyline fill="none" stroke="#e8730a" stroke-width="2" points="40.0,259.3 104.0,258.6 270.4,255.2 283.2,254.5 296.0,253.1 308.8,248.3 321.6,242.2 334.4,232.6 347.2,218.9 360.0,196.9 372.8,192.1 385.6,191.5 398.4,185.3 411.2,177.1 424.0,167.5 436.8,155.8 449.6,153.8 462.4,151.0 552.0,149.7 564.8,139.4 577.6,131.2 590.4,106.5 603.2,82.5 616.0,70.8 628.8,69.5 641.6,66.0 654.4,61.9 667.2,45.5 680.0,40.0"/>
<circle cx="40.0" cy="259.3" r="2.5" fill="#e8730a"/>
<circle cx="104.0" cy="258.6" r="2.5" fill="#e8730a"/>
<circle cx="270.4" cy="255.2" r="2.5" fill="#e8730a"/>
<circle cx="283.2" cy="254.5" r="2.5" fill="#e8730a"/>
<circle cx="296.0" cy="253.1" r="2.5" fill="#e8730a"/>
<circle cx="308.8" cy="248.3" r="2.5" fill="#e8730a"/>
<circle cx="321.6" cy="242.2" r="2.5" fill="#e8730a"/>
<circle cx="334.4" cy="232.6" r="2.5" fill="#e8730a"/>
<circle cx="347.2" cy="218.9" r="2.5" fill="#e8730a"/>
<circle cx="360.0" cy="196.9" r="2.5" fill="#e8730a"/>
<circle cx="372.8" cy="192.1" r="2.5" fill="#e8730a"/>
<circle cx="385.6" cy="191.5" r="2.5" fill="#e8730a"/>
<circle cx="398.4" cy="185.3" r="2.5" fill="#e8730a"/>
<circle cx="411.2" cy="177.1" r="2.5" fill="#e8730a"/>
<circle cx="424.0" cy="167.5" r="2.5" fill="#e8730a"/>
<circle cx="436.8" cy="155.8" r="2.5" fill="#e8730a"/>
<circle cx="449.6" cy="153.8" r="2.5" fill="#e8730a"/>
<circle cx="462.4" cy="151.0" r="2.5" fill="#e8730a"/>
<circle cx="552.0" cy="149.7" r="2.5" fill="#e8730a"/>
<circle cx="564.8" cy="139.4" r="2.5" fill="#e8730a"/>
<circle cx="577.6" cy="131.2" r="2.5" fill="#e8730a"/>
<circle cx="590.4" cy="106.5" r="2.5" fill="#e8730a"/>
<circle cx="603.2" cy="82.5" r="2.5" fill="#e8730a"/>
<circle cx="616.0" cy="70.8" r="2.5" fill="#e8730a"/>
<circle cx="628.8" cy="69.5" r="2.5" fill="#e8730a"/>
<circle cx="641.6" cy="66.0" r="2.5" fill="#e8730a"/>
<circle cx="654.4" cy="61.9" r="2.5" fill="#e8730a"/>
<circle cx="667.2" cy="45.5" r="2.5" fill="#e8730a"/>
<circle cx="680.0" cy="40.0" r="2.5" fill="#e8730a"/>
<text x="40" y="288">2026-05-20</text>
<text x="610" y="288">2026-07-09</text>
<text x="40" y="20">cumulative bugs surfaced: 321</text>
</svg>