<svg xmlns="http://www.w3.org/2000/svg" width="720" height="300" font-family="monospace" font-size="12">
<rect width="720" height="300" fill="white"/>
<polyline fill="none" stroke="#e8730a" stroke-width="2" points="40.0,259.1 112.7,258.2 301.8,253.6 316.4,252.7 330.9,250.9 345.5,244.5 360.0,236.4 374.5,223.6 389.1,205.5 403.6,176.4 418.2,170.0 432.7,169.1 447.3,160.9 461.8,150.0 476.4,137.3 490.9,121.8 505.5,119.1 520.0,115.5 621.8,113.6 636.4,100.0 650.9,89.1 665.5,56.4 680.0,40.0"/>
<circle cx="40.0" cy="259.1" r="2.5" fill="#e8730a"/>
<circle cx="112.7" cy="258.2" r="2.5" fill="#e8730a"/>
<circle cx="301.8" cy="253.6" r="2.5" fill="#e8730a"/>
<circle cx="316.4" cy="252.7" r="2.5" fill="#e8730a"/>
<circle cx="330.9" cy="250.9" r="2.5" fill="#e8730a"/>
<circle cx="345.5" cy="244.5" r="2.5" fill="#e8730a"/>
<circle cx="360.0" cy="236.4" r="2.5" fill="#e8730a"/>
<circle cx="374.5" cy="223.6" r="2.5" fill="#e8730a"/>
<circle cx="389.1" cy="205.5" r="2.5" fill="#e8730a"/>
<circle cx="403.6" cy="176.4" r="2.5" fill="#e8730a"/>
<circle cx="418.2" cy="170.0" r="2.5" fill="#e8730a"/>
<circle cx="432.7" cy="169.1" r="2.5" fill="#e8730a"/>
<circle cx="447.3" cy="160.9" r="2.5" fill="#e8730a"/>
<circle cx="461.8" cy="150.0" r="2.5" fill="#e8730a"/>
<circle cx="476.4" cy="137.3" r="2.5" fill="#e8730a"/>
<circle cx="490.9" cy="121.8" r="2.5" fill="#e8730a"/>
<circle cx="505.5" cy="119.1" r="2.5" fill="#e8730a"/>
<circle cx="520.0" cy="115.5" r="2.5" fill="#e8730a"/>
<circle cx="621.8" cy="113.6" r="2.5" fill="#e8730a"/>
<circle cx="636.4" cy="100.0" r="2.5" fill="#e8730a"/>
<circle cx="650.9" cy="89.1" r="2.5" fill="#e8730a"/>
<circle cx="665.5" cy="56.4" r="2.5" fill="#e8730a"/>
<circle cx="680.0" cy="40.0" r="2.5" fill="#e8730a"/>
<text x="40" y="288">2026-05-20</text>
<text x="610" y="288">2026-07-03</text>
<text x="40" y="20">cumulative bugs surfaced: 242</text>
</svg>