<svg xmlns="http://www.w3.org/2000/svg" width="720" height="300" font-family="monospace" font-size="12">
<rect width="720" height="300" fill="white"/>
<polyline fill="none" stroke="#e8730a" stroke-width="2" points="40.0,259.0 114.4,258.0 307.9,252.9 322.8,251.9 337.7,249.8 352.6,242.7 367.4,233.5 382.3,219.3 397.2,198.9 412.1,166.3 427.0,159.2 441.9,158.1 456.7,149.0 471.6,136.8 486.5,122.5 501.4,105.2 516.3,102.1 531.2,98.1 635.3,96.0 650.2,80.7 665.1,68.5 680.0,40.0"/>
<circle cx="40.0" cy="259.0" r="2.5" fill="#e8730a"/>
<circle cx="114.4" cy="258.0" r="2.5" fill="#e8730a"/>
<circle cx="307.9" cy="252.9" r="2.5" fill="#e8730a"/>
<circle cx="322.8" cy="251.9" r="2.5" fill="#e8730a"/>
<circle cx="337.7" cy="249.8" r="2.5" fill="#e8730a"/>
<circle cx="352.6" cy="242.7" r="2.5" fill="#e8730a"/>
<circle cx="367.4" cy="233.5" r="2.5" fill="#e8730a"/>
<circle cx="382.3" cy="219.3" r="2.5" fill="#e8730a"/>
<circle cx="397.2" cy="198.9" r="2.5" fill="#e8730a"/>
<circle cx="412.1" cy="166.3" r="2.5" fill="#e8730a"/>
<circle cx="427.0" cy="159.2" r="2.5" fill="#e8730a"/>
<circle cx="441.9" cy="158.1" r="2.5" fill="#e8730a"/>
<circle cx="456.7" cy="149.0" r="2.5" fill="#e8730a"/>
<circle cx="471.6" cy="136.8" r="2.5" fill="#e8730a"/>
<circle cx="486.5" cy="122.5" r="2.5" fill="#e8730a"/>
<circle cx="501.4" cy="105.2" r="2.5" fill="#e8730a"/>
<circle cx="516.3" cy="102.1" r="2.5" fill="#e8730a"/>
<circle cx="531.2" cy="98.1" r="2.5" fill="#e8730a"/>
<circle cx="635.3" cy="96.0" r="2.5" fill="#e8730a"/>
<circle cx="650.2" cy="80.7" r="2.5" fill="#e8730a"/>
<circle cx="665.1" cy="68.5" r="2.5" fill="#e8730a"/>
<circle cx="680.0" cy="40.0" r="2.5" fill="#e8730a"/>
<text x="40" y="288">2026-05-20</text>
<text x="610" y="288">2026-07-02</text>
<text x="40" y="20">cumulative bugs surfaced: 216</text>
</svg>