<svg xmlns="http://www.w3.org/2000/svg" width="720" height="300" font-family="monospace" font-size="12">
<rect width="720" height="300" fill="white"/>
<polyline fill="none" stroke="#e8730a" stroke-width="2" points="40.0,259.0 114.4,258.0 307.9,253.0 322.8,252.0 337.7,250.0 352.6,242.9 367.4,233.9 382.3,219.8 397.2,199.7 412.1,167.6 427.0,160.5 441.9,159.5 456.7,150.5 471.6,138.4 486.5,124.4 501.4,107.3 516.3,104.3 531.2,100.3 635.3,98.3 650.2,83.2 665.1,71.1 680.0,40.0"/>
<circle cx="40.0" cy="259.0" r="2.5" fill="#e8730a"/>
<circle cx="114.4" cy="258.0" r="2.5" fill="#e8730a"/>
<circle cx="307.9" cy="253.0" r="2.5" fill="#e8730a"/>
<circle cx="322.8" cy="252.0" r="2.5" fill="#e8730a"/>
<circle cx="337.7" cy="250.0" r="2.5" fill="#e8730a"/>
<circle cx="352.6" cy="242.9" r="2.5" fill="#e8730a"/>
<circle cx="367.4" cy="233.9" r="2.5" fill="#e8730a"/>
<circle cx="382.3" cy="219.8" r="2.5" fill="#e8730a"/>
<circle cx="397.2" cy="199.7" r="2.5" fill="#e8730a"/>
<circle cx="412.1" cy="167.6" r="2.5" fill="#e8730a"/>
<circle cx="427.0" cy="160.5" r="2.5" fill="#e8730a"/>
<circle cx="441.9" cy="159.5" r="2.5" fill="#e8730a"/>
<circle cx="456.7" cy="150.5" r="2.5" fill="#e8730a"/>
<circle cx="471.6" cy="138.4" r="2.5" fill="#e8730a"/>
<circle cx="486.5" cy="124.4" r="2.5" fill="#e8730a"/>
<circle cx="501.4" cy="107.3" r="2.5" fill="#e8730a"/>
<circle cx="516.3" cy="104.3" r="2.5" fill="#e8730a"/>
<circle cx="531.2" cy="100.3" r="2.5" fill="#e8730a"/>
<circle cx="635.3" cy="98.3" r="2.5" fill="#e8730a"/>
<circle cx="650.2" cy="83.2" r="2.5" fill="#e8730a"/>
<circle cx="665.1" cy="71.1" r="2.5" fill="#e8730a"/>
<circle cx="680.0" cy="40.0" r="2.5" fill="#e8730a"/>
<text x="40" y="288">2026-05-20</text>
<text x="610" y="288">2026-07-02</text>
<text x="40" y="20">cumulative bugs surfaced: 219</text>
</svg>