<svg xmlns="http://www.w3.org/2000/svg" width="720" height="300" font-family="monospace" font-size="12">
<rect width="720" height="300" fill="white"/>
<polyline fill="none" stroke="#e8730a" stroke-width="2" points="40.0,258.7 118.0,257.5 321.0,251.1 336.6,249.8 352.2,247.3 367.8,238.4 383.4,226.9 399.0,209.1 414.6,183.7 430.2,143.0 445.9,134.1 461.5,132.8 477.1,121.4 492.7,106.1 508.3,88.3 523.9,66.7 539.5,62.9 555.1,57.8 664.4,55.3 680.0,40.0"/>
<circle cx="40.0" cy="258.7" r="2.5" fill="#e8730a"/>
<circle cx="118.0" cy="257.5" r="2.5" fill="#e8730a"/>
<circle cx="321.0" cy="251.1" r="2.5" fill="#e8730a"/>
<circle cx="336.6" cy="249.8" r="2.5" fill="#e8730a"/>
<circle cx="352.2" cy="247.3" r="2.5" fill="#e8730a"/>
<circle cx="367.8" cy="238.4" r="2.5" fill="#e8730a"/>
<circle cx="383.4" cy="226.9" r="2.5" fill="#e8730a"/>
<circle cx="399.0" cy="209.1" r="2.5" fill="#e8730a"/>
<circle cx="414.6" cy="183.7" r="2.5" fill="#e8730a"/>
<circle cx="430.2" cy="143.0" r="2.5" fill="#e8730a"/>
<circle cx="445.9" cy="134.1" r="2.5" fill="#e8730a"/>
<circle cx="461.5" cy="132.8" r="2.5" fill="#e8730a"/>
<circle cx="477.1" cy="121.4" r="2.5" fill="#e8730a"/>
<circle cx="492.7" cy="106.1" r="2.5" fill="#e8730a"/>
<circle cx="508.3" cy="88.3" r="2.5" fill="#e8730a"/>
<circle cx="523.9" cy="66.7" r="2.5" fill="#e8730a"/>
<circle cx="539.5" cy="62.9" r="2.5" fill="#e8730a"/>
<circle cx="555.1" cy="57.8" r="2.5" fill="#e8730a"/>
<circle cx="664.4" cy="55.3" r="2.5" fill="#e8730a"/>
<circle cx="680.0" cy="40.0" r="2.5" fill="#e8730a"/>
<text x="40" y="288">2026-05-20</text>
<text x="610" y="288">2026-06-30</text>
<text x="40" y="20">cumulative bugs surfaced: 173</text>
</svg>