<svg xmlns="http://www.w3.org/2000/svg" width="720" height="300" font-family="monospace" font-size="12">
<rect width="720" height="300" fill="white"/>
<polyline fill="none" stroke="#e8730a" stroke-width="2" points="40.0,258.6 137.0,257.2 389.1,250.1 408.5,248.7 427.9,245.9 447.3,236.0 466.7,223.3 486.1,203.6 505.5,175.4 524.8,130.3 544.2,120.4 563.6,119.0 583.0,106.3 602.4,89.4 621.8,69.6 641.2,45.6 660.6,41.4 680.0,40.0"/>
<circle cx="40.0" cy="258.6" r="2.5" fill="#e8730a"/>
<circle cx="137.0" cy="257.2" r="2.5" fill="#e8730a"/>
<circle cx="389.1" cy="250.1" r="2.5" fill="#e8730a"/>
<circle cx="408.5" cy="248.7" r="2.5" fill="#e8730a"/>
<circle cx="427.9" cy="245.9" r="2.5" fill="#e8730a"/>
<circle cx="447.3" cy="236.0" r="2.5" fill="#e8730a"/>
<circle cx="466.7" cy="223.3" r="2.5" fill="#e8730a"/>
<circle cx="486.1" cy="203.6" r="2.5" fill="#e8730a"/>
<circle cx="505.5" cy="175.4" r="2.5" fill="#e8730a"/>
<circle cx="524.8" cy="130.3" r="2.5" fill="#e8730a"/>
<circle cx="544.2" cy="120.4" r="2.5" fill="#e8730a"/>
<circle cx="563.6" cy="119.0" r="2.5" fill="#e8730a"/>
<circle cx="583.0" cy="106.3" r="2.5" fill="#e8730a"/>
<circle cx="602.4" cy="89.4" r="2.5" fill="#e8730a"/>
<circle cx="621.8" cy="69.6" r="2.5" fill="#e8730a"/>
<circle cx="641.2" cy="45.6" r="2.5" fill="#e8730a"/>
<circle cx="660.6" cy="41.4" r="2.5" fill="#e8730a"/>
<circle cx="680.0" cy="40.0" r="2.5" fill="#e8730a"/>
<text x="40" y="288">2026-05-20</text>
<text x="610" y="288">2026-06-22</text>
<text x="40" y="20">cumulative bugs surfaced: 156</text>
</svg>