<svg xmlns="http://www.w3.org/2000/svg" width="720" height="300" font-family="monospace" font-size="12">
<rect width="720" height="300" fill="white"/>
<polyline fill="none" stroke="#e8730a" stroke-width="2" points="40.0,258.6 140.0,257.1 400.0,249.9 420.0,248.5 440.0,245.6 460.0,235.6 480.0,222.6 500.0,202.5 520.0,173.7 540.0,127.7 560.0,117.6 580.0,116.2 600.0,103.3 620.0,86.0 640.0,65.9 660.0,41.4 680.0,40.0"/>
<circle cx="40.0" cy="258.6" r="2.5" fill="#e8730a"/>
<circle cx="140.0" cy="257.1" r="2.5" fill="#e8730a"/>
<circle cx="400.0" cy="249.9" r="2.5" fill="#e8730a"/>
<circle cx="420.0" cy="248.5" r="2.5" fill="#e8730a"/>
<circle cx="440.0" cy="245.6" r="2.5" fill="#e8730a"/>
<circle cx="460.0" cy="235.6" r="2.5" fill="#e8730a"/>
<circle cx="480.0" cy="222.6" r="2.5" fill="#e8730a"/>
<circle cx="500.0" cy="202.5" r="2.5" fill="#e8730a"/>
<circle cx="520.0" cy="173.7" r="2.5" fill="#e8730a"/>
<circle cx="540.0" cy="127.7" r="2.5" fill="#e8730a"/>
<circle cx="560.0" cy="117.6" r="2.5" fill="#e8730a"/>
<circle cx="580.0" cy="116.2" r="2.5" fill="#e8730a"/>
<circle cx="600.0" cy="103.3" r="2.5" fill="#e8730a"/>
<circle cx="620.0" cy="86.0" r="2.5" fill="#e8730a"/>
<circle cx="640.0" cy="65.9" r="2.5" fill="#e8730a"/>
<circle cx="660.0" cy="41.4" r="2.5" fill="#e8730a"/>
<circle cx="680.0" cy="40.0" r="2.5" fill="#e8730a"/>
<text x="40" y="288">2026-05-20</text>
<text x="610" y="288">2026-06-21</text>
<text x="40" y="20">cumulative bugs surfaced: 153</text>
</svg>