<svg xmlns="http://www.w3.org/2000/svg" width="720" height="300" font-family="monospace" font-size="12">
<rect width="720" height="300" fill="white"/>
<polyline fill="none" stroke="#e8730a" stroke-width="2" points="40.0,259.2 106.7,258.5 280.0,254.6 293.3,253.8 306.7,252.3 320.0,246.9 333.3,240.0 346.7,229.2 360.0,213.8 373.3,189.2 386.7,183.8 400.0,183.1 413.3,176.2 426.7,166.9 440.0,156.2 453.3,143.1 466.7,140.8 480.0,137.7 573.3,136.2 586.7,124.6 600.0,115.4 613.3,87.7 626.7,60.8 640.0,47.7 653.3,46.2 666.7,42.3 680.0,40.0"/>
<circle cx="40.0" cy="259.2" r="2.5" fill="#e8730a"/>
<circle cx="106.7" cy="258.5" r="2.5" fill="#e8730a"/>
<circle cx="280.0" cy="254.6" r="2.5" fill="#e8730a"/>
<circle cx="293.3" cy="253.8" r="2.5" fill="#e8730a"/>
<circle cx="306.7" cy="252.3" r="2.5" fill="#e8730a"/>
<circle cx="320.0" cy="246.9" r="2.5" fill="#e8730a"/>
<circle cx="333.3" cy="240.0" r="2.5" fill="#e8730a"/>
<circle cx="346.7" cy="229.2" r="2.5" fill="#e8730a"/>
<circle cx="360.0" cy="213.8" r="2.5" fill="#e8730a"/>
<circle cx="373.3" cy="189.2" r="2.5" fill="#e8730a"/>
<circle cx="386.7" cy="183.8" r="2.5" fill="#e8730a"/>
<circle cx="400.0" cy="183.1" r="2.5" fill="#e8730a"/>
<circle cx="413.3" cy="176.2" r="2.5" fill="#e8730a"/>
<circle cx="426.7" cy="166.9" r="2.5" fill="#e8730a"/>
<circle cx="440.0" cy="156.2" r="2.5" fill="#e8730a"/>
<circle cx="453.3" cy="143.1" r="2.5" fill="#e8730a"/>
<circle cx="466.7" cy="140.8" r="2.5" fill="#e8730a"/>
<circle cx="480.0" cy="137.7" r="2.5" fill="#e8730a"/>
<circle cx="573.3" cy="136.2" r="2.5" fill="#e8730a"/>
<circle cx="586.7" cy="124.6" r="2.5" fill="#e8730a"/>
<circle cx="600.0" cy="115.4" r="2.5" fill="#e8730a"/>
<circle cx="613.3" cy="87.7" r="2.5" fill="#e8730a"/>
<circle cx="626.7" cy="60.8" r="2.5" fill="#e8730a"/>
<circle cx="640.0" cy="47.7" r="2.5" fill="#e8730a"/>
<circle cx="653.3" cy="46.2" r="2.5" fill="#e8730a"/>
<circle cx="666.7" cy="42.3" r="2.5" fill="#e8730a"/>
<circle cx="680.0" cy="40.0" r="2.5" fill="#e8730a"/>
<text x="40" y="288">2026-05-20</text>
<text x="610" y="288">2026-07-07</text>
<text x="40" y="20">cumulative bugs surfaced: 286</text>
</svg>