<svg xmlns="http://www.w3.org/2000/svg" width="720" height="300" font-family="monospace" font-size="12">
<rect width="720" height="300" fill="white"/>
<polyline fill="none" stroke="#e8730a" stroke-width="2" points="40.0,259.3 104.0,258.6 270.4,255.1 283.2,254.4 296.0,253.0 308.8,248.1 321.6,241.8 334.4,232.1 347.2,218.1 360.0,195.7 372.8,190.9 385.6,190.2 398.4,183.9 411.2,175.5 424.0,165.7 436.8,153.8 449.6,151.7 462.4,149.0 552.0,147.6 564.8,137.1 577.6,128.7 590.4,103.6 603.2,79.1 616.0,67.2 628.8,65.8 641.6,62.3 654.4,58.2 667.2,41.4 680.0,40.0"/>
<circle cx="40.0" cy="259.3" r="2.5" fill="#e8730a"/>
<circle cx="104.0" cy="258.6" r="2.5" fill="#e8730a"/>
<circle cx="270.4" cy="255.1" r="2.5" fill="#e8730a"/>
<circle cx="283.2" cy="254.4" r="2.5" fill="#e8730a"/>
<circle cx="296.0" cy="253.0" r="2.5" fill="#e8730a"/>
<circle cx="308.8" cy="248.1" r="2.5" fill="#e8730a"/>
<circle cx="321.6" cy="241.8" r="2.5" fill="#e8730a"/>
<circle cx="334.4" cy="232.1" r="2.5" fill="#e8730a"/>
<circle cx="347.2" cy="218.1" r="2.5" fill="#e8730a"/>
<circle cx="360.0" cy="195.7" r="2.5" fill="#e8730a"/>
<circle cx="372.8" cy="190.9" r="2.5" fill="#e8730a"/>
<circle cx="385.6" cy="190.2" r="2.5" fill="#e8730a"/>
<circle cx="398.4" cy="183.9" r="2.5" fill="#e8730a"/>
<circle cx="411.2" cy="175.5" r="2.5" fill="#e8730a"/>
<circle cx="424.0" cy="165.7" r="2.5" fill="#e8730a"/>
<circle cx="436.8" cy="153.8" r="2.5" fill="#e8730a"/>
<circle cx="449.6" cy="151.7" r="2.5" fill="#e8730a"/>
<circle cx="462.4" cy="149.0" r="2.5" fill="#e8730a"/>
<circle cx="552.0" cy="147.6" r="2.5" fill="#e8730a"/>
<circle cx="564.8" cy="137.1" r="2.5" fill="#e8730a"/>
<circle cx="577.6" cy="128.7" r="2.5" fill="#e8730a"/>
<circle cx="590.4" cy="103.6" r="2.5" fill="#e8730a"/>
<circle cx="603.2" cy="79.1" r="2.5" fill="#e8730a"/>
<circle cx="616.0" cy="67.2" r="2.5" fill="#e8730a"/>
<circle cx="628.8" cy="65.8" r="2.5" fill="#e8730a"/>
<circle cx="641.6" cy="62.3" r="2.5" fill="#e8730a"/>
<circle cx="654.4" cy="58.2" r="2.5" fill="#e8730a"/>
<circle cx="667.2" cy="41.4" r="2.5" fill="#e8730a"/>
<circle cx="680.0" cy="40.0" r="2.5" fill="#e8730a"/>
<text x="40" y="288">2026-05-20</text>
<text x="610" y="288">2026-07-09</text>
<text x="40" y="20">cumulative bugs surfaced: 315</text>
</svg>