<svg xmlns="http://www.w3.org/2000/svg" width="720" height="300" font-family="monospace" font-size="12">
<rect width="720" height="300" fill="white"/>
<polyline fill="none" stroke="#e8730a" stroke-width="2" points="40.0,258.0 150.3,256.0 437.2,246.0 459.3,244.0 481.4,240.0 503.4,226.0 525.5,208.0 547.6,180.0 569.7,140.0 591.7,76.0 613.8,62.0 635.9,60.0 657.9,42.0 680.0,40.0"/>
<circle cx="40.0" cy="258.0" r="2.5" fill="#e8730a"/>
<circle cx="150.3" cy="256.0" r="2.5" fill="#e8730a"/>
<circle cx="437.2" cy="246.0" r="2.5" fill="#e8730a"/>
<circle cx="459.3" cy="244.0" r="2.5" fill="#e8730a"/>
<circle cx="481.4" cy="240.0" r="2.5" fill="#e8730a"/>
<circle cx="503.4" cy="226.0" r="2.5" fill="#e8730a"/>
<circle cx="525.5" cy="208.0" r="2.5" fill="#e8730a"/>
<circle cx="547.6" cy="180.0" r="2.5" fill="#e8730a"/>
<circle cx="569.7" cy="140.0" r="2.5" fill="#e8730a"/>
<circle cx="591.7" cy="76.0" r="2.5" fill="#e8730a"/>
<circle cx="613.8" cy="62.0" r="2.5" fill="#e8730a"/>
<circle cx="635.9" cy="60.0" r="2.5" fill="#e8730a"/>
<circle cx="657.9" cy="42.0" r="2.5" fill="#e8730a"/>
<circle cx="680.0" cy="40.0" r="2.5" fill="#e8730a"/>
<text x="40" y="288">2026-05-20</text>
<text x="610" y="288">2026-06-18</text>
<text x="40" y="20">cumulative bugs surfaced: 110</text>
</svg>