<svg xmlns="http://www.w3.org/2000/svg" width="720" height="300" font-family="monospace" font-size="12">
<rect width="720" height="300" fill="white"/>
<polyline fill="none" stroke="#e8730a" stroke-width="2" points="40.0,258.1 150.3,256.1 437.2,246.5 459.3,244.6 481.4,240.7 503.4,227.2 525.5,209.8 547.6,182.8 569.7,144.2 591.7,82.5 613.8,68.9 635.9,67.0 657.9,49.6 680.0,40.0"/>
<circle cx="40.0" cy="258.1" r="2.5" fill="#e8730a"/>
<circle cx="150.3" cy="256.1" r="2.5" fill="#e8730a"/>
<circle cx="437.2" cy="246.5" r="2.5" fill="#e8730a"/>
<circle cx="459.3" cy="244.6" r="2.5" fill="#e8730a"/>
<circle cx="481.4" cy="240.7" r="2.5" fill="#e8730a"/>
<circle cx="503.4" cy="227.2" r="2.5" fill="#e8730a"/>
<circle cx="525.5" cy="209.8" r="2.5" fill="#e8730a"/>
<circle cx="547.6" cy="182.8" r="2.5" fill="#e8730a"/>
<circle cx="569.7" cy="144.2" r="2.5" fill="#e8730a"/>
<circle cx="591.7" cy="82.5" r="2.5" fill="#e8730a"/>
<circle cx="613.8" cy="68.9" r="2.5" fill="#e8730a"/>
<circle cx="635.9" cy="67.0" r="2.5" fill="#e8730a"/>
<circle cx="657.9" cy="49.6" r="2.5" fill="#e8730a"/>
<circle cx="680.0" cy="40.0" r="2.5" fill="#e8730a"/>
<text x="40" y="288">2026-05-20</text>
<text x="610" y="288">2026-06-18</text>
<text x="40" y="20">cumulative bugs surfaced: 114</text>
</svg>