<svg xmlns="http://www.w3.org/2000/svg" width="720" height="300" font-family="monospace" font-size="12">
<rect width="720" height="300" fill="white"/>
<polyline fill="none" stroke="#e8730a" stroke-width="2" points="40.0,259.2 106.7,258.4 280.0,254.5 293.3,253.7 306.7,252.1 320.0,246.6 333.3,239.6 346.7,228.6 360.0,212.9 373.3,187.7 386.7,182.2 400.0,181.4 413.3,174.4 426.7,164.9 440.0,153.9 453.3,140.6 466.7,138.2 480.0,135.1 573.3,133.5 586.7,121.7 600.0,112.3 613.3,84.0 626.7,56.5 640.0,43.1 653.3,41.6 666.7,40.8 680.0,40.0"/>
<circle cx="40.0" cy="259.2" r="2.5" fill="#e8730a"/>
<circle cx="106.7" cy="258.4" r="2.5" fill="#e8730a"/>
<circle cx="280.0" cy="254.5" r="2.5" fill="#e8730a"/>
<circle cx="293.3" cy="253.7" r="2.5" fill="#e8730a"/>
<circle cx="306.7" cy="252.1" r="2.5" fill="#e8730a"/>
<circle cx="320.0" cy="246.6" r="2.5" fill="#e8730a"/>
<circle cx="333.3" cy="239.6" r="2.5" fill="#e8730a"/>
<circle cx="346.7" cy="228.6" r="2.5" fill="#e8730a"/>
<circle cx="360.0" cy="212.9" r="2.5" fill="#e8730a"/>
<circle cx="373.3" cy="187.7" r="2.5" fill="#e8730a"/>
<circle cx="386.7" cy="182.2" r="2.5" fill="#e8730a"/>
<circle cx="400.0" cy="181.4" r="2.5" fill="#e8730a"/>
<circle cx="413.3" cy="174.4" r="2.5" fill="#e8730a"/>
<circle cx="426.7" cy="164.9" r="2.5" fill="#e8730a"/>
<circle cx="440.0" cy="153.9" r="2.5" fill="#e8730a"/>
<circle cx="453.3" cy="140.6" r="2.5" fill="#e8730a"/>
<circle cx="466.7" cy="138.2" r="2.5" fill="#e8730a"/>
<circle cx="480.0" cy="135.1" r="2.5" fill="#e8730a"/>
<circle cx="573.3" cy="133.5" r="2.5" fill="#e8730a"/>
<circle cx="586.7" cy="121.7" r="2.5" fill="#e8730a"/>
<circle cx="600.0" cy="112.3" r="2.5" fill="#e8730a"/>
<circle cx="613.3" cy="84.0" r="2.5" fill="#e8730a"/>
<circle cx="626.7" cy="56.5" r="2.5" fill="#e8730a"/>
<circle cx="640.0" cy="43.1" r="2.5" fill="#e8730a"/>
<circle cx="653.3" cy="41.6" r="2.5" fill="#e8730a"/>
<circle cx="666.7" cy="40.8" r="2.5" fill="#e8730a"/>
<circle cx="680.0" cy="40.0" r="2.5" fill="#e8730a"/>
<text x="40" y="288">2026-05-20</text>
<text x="610" y="288">2026-07-07</text>
<text x="40" y="20">cumulative bugs surfaced: 280</text>
</svg>