<svg xmlns="http://www.w3.org/2000/svg" width="720" height="300" font-family="monospace" font-size="12">
<rect width="720" height="300" fill="white"/>
<polyline fill="none" stroke="#e8730a" stroke-width="2" points="40.0,259.1 112.7,258.2 301.8,253.7 316.4,252.8 330.9,251.0 345.5,244.7 360.0,236.6 374.5,223.9 389.1,205.9 403.6,177.0 418.2,170.7 432.7,169.8 447.3,161.7 461.8,150.9 476.4,138.3 490.9,123.0 505.5,120.2 520.0,116.6 621.8,114.8 636.4,101.3 650.9,90.5 665.5,58.0 680.0,40.0"/>
<circle cx="40.0" cy="259.1" r="2.5" fill="#e8730a"/>
<circle cx="112.7" cy="258.2" r="2.5" fill="#e8730a"/>
<circle cx="301.8" cy="253.7" r="2.5" fill="#e8730a"/>
<circle cx="316.4" cy="252.8" r="2.5" fill="#e8730a"/>
<circle cx="330.9" cy="251.0" r="2.5" fill="#e8730a"/>
<circle cx="345.5" cy="244.7" r="2.5" fill="#e8730a"/>
<circle cx="360.0" cy="236.6" r="2.5" fill="#e8730a"/>
<circle cx="374.5" cy="223.9" r="2.5" fill="#e8730a"/>
<circle cx="389.1" cy="205.9" r="2.5" fill="#e8730a"/>
<circle cx="403.6" cy="177.0" r="2.5" fill="#e8730a"/>
<circle cx="418.2" cy="170.7" r="2.5" fill="#e8730a"/>
<circle cx="432.7" cy="169.8" r="2.5" fill="#e8730a"/>
<circle cx="447.3" cy="161.7" r="2.5" fill="#e8730a"/>
<circle cx="461.8" cy="150.9" r="2.5" fill="#e8730a"/>
<circle cx="476.4" cy="138.3" r="2.5" fill="#e8730a"/>
<circle cx="490.9" cy="123.0" r="2.5" fill="#e8730a"/>
<circle cx="505.5" cy="120.2" r="2.5" fill="#e8730a"/>
<circle cx="520.0" cy="116.6" r="2.5" fill="#e8730a"/>
<circle cx="621.8" cy="114.8" r="2.5" fill="#e8730a"/>
<circle cx="636.4" cy="101.3" r="2.5" fill="#e8730a"/>
<circle cx="650.9" cy="90.5" r="2.5" fill="#e8730a"/>
<circle cx="665.5" cy="58.0" r="2.5" fill="#e8730a"/>
<circle cx="680.0" cy="40.0" r="2.5" fill="#e8730a"/>
<text x="40" y="288">2026-05-20</text>
<text x="610" y="288">2026-07-03</text>
<text x="40" y="20">cumulative bugs surfaced: 244</text>
</svg>