<svg xmlns="http://www.w3.org/2000/svg" width="720" height="300" font-family="monospace" font-size="12">
<rect width="720" height="300" fill="white"/>
<polyline fill="none" stroke="#e8730a" stroke-width="2" points="40.0,259.0 112.7,258.1 301.8,253.3 316.4,252.4 330.9,250.5 345.5,243.8 360.0,235.2 374.5,221.9 389.1,202.9 403.6,172.4 418.2,165.7 432.7,164.8 447.3,156.2 461.8,144.8 476.4,131.4 490.9,115.2 505.5,112.4 520.0,108.6 621.8,106.7 636.4,92.4 650.9,81.0 665.5,46.7 680.0,40.0"/>
<circle cx="40.0" cy="259.0" r="2.5" fill="#e8730a"/>
<circle cx="112.7" cy="258.1" r="2.5" fill="#e8730a"/>
<circle cx="301.8" cy="253.3" r="2.5" fill="#e8730a"/>
<circle cx="316.4" cy="252.4" r="2.5" fill="#e8730a"/>
<circle cx="330.9" cy="250.5" r="2.5" fill="#e8730a"/>
<circle cx="345.5" cy="243.8" r="2.5" fill="#e8730a"/>
<circle cx="360.0" cy="235.2" r="2.5" fill="#e8730a"/>
<circle cx="374.5" cy="221.9" r="2.5" fill="#e8730a"/>
<circle cx="389.1" cy="202.9" r="2.5" fill="#e8730a"/>
<circle cx="403.6" cy="172.4" r="2.5" fill="#e8730a"/>
<circle cx="418.2" cy="165.7" r="2.5" fill="#e8730a"/>
<circle cx="432.7" cy="164.8" r="2.5" fill="#e8730a"/>
<circle cx="447.3" cy="156.2" r="2.5" fill="#e8730a"/>
<circle cx="461.8" cy="144.8" r="2.5" fill="#e8730a"/>
<circle cx="476.4" cy="131.4" r="2.5" fill="#e8730a"/>
<circle cx="490.9" cy="115.2" r="2.5" fill="#e8730a"/>
<circle cx="505.5" cy="112.4" r="2.5" fill="#e8730a"/>
<circle cx="520.0" cy="108.6" r="2.5" fill="#e8730a"/>
<circle cx="621.8" cy="106.7" r="2.5" fill="#e8730a"/>
<circle cx="636.4" cy="92.4" r="2.5" fill="#e8730a"/>
<circle cx="650.9" cy="81.0" r="2.5" fill="#e8730a"/>
<circle cx="665.5" cy="46.7" r="2.5" fill="#e8730a"/>
<circle cx="680.0" cy="40.0" r="2.5" fill="#e8730a"/>
<text x="40" y="288">2026-05-20</text>
<text x="610" y="288">2026-07-03</text>
<text x="40" y="20">cumulative bugs surfaced: 231</text>
</svg>