<svg xmlns="http://www.w3.org/2000/svg" width="720" height="300" font-family="monospace" font-size="12">
<rect width="720" height="300" fill="white"/>
<polyline fill="none" stroke="#e8730a" stroke-width="2" points="40.0,259.4 101.5,258.7 261.5,255.5 273.8,254.8 286.2,253.5 298.5,249.0 310.8,243.2 323.1,234.2 335.4,221.3 347.7,200.6 360.0,196.1 372.3,195.5 384.6,189.7 396.9,181.9 409.2,172.9 421.5,161.9 433.8,160.0 446.2,157.4 532.3,156.1 544.6,146.5 556.9,138.7 569.2,115.5 581.5,92.9 593.8,81.9 606.2,80.6 618.5,77.4 630.8,73.5 643.1,57.4 655.4,44.5 667.7,41.3 680.0,40.0"/>
<circle cx="40.0" cy="259.4" r="2.5" fill="#e8730a"/>
<circle cx="101.5" cy="258.7" r="2.5" fill="#e8730a"/>
<circle cx="261.5" cy="255.5" r="2.5" fill="#e8730a"/>
<circle cx="273.8" cy="254.8" r="2.5" fill="#e8730a"/>
<circle cx="286.2" cy="253.5" r="2.5" fill="#e8730a"/>
<circle cx="298.5" cy="249.0" r="2.5" fill="#e8730a"/>
<circle cx="310.8" cy="243.2" r="2.5" fill="#e8730a"/>
<circle cx="323.1" cy="234.2" r="2.5" fill="#e8730a"/>
<circle cx="335.4" cy="221.3" r="2.5" fill="#e8730a"/>
<circle cx="347.7" cy="200.6" r="2.5" fill="#e8730a"/>
<circle cx="360.0" cy="196.1" r="2.5" fill="#e8730a"/>
<circle cx="372.3" cy="195.5" r="2.5" fill="#e8730a"/>
<circle cx="384.6" cy="189.7" r="2.5" fill="#e8730a"/>
<circle cx="396.9" cy="181.9" r="2.5" fill="#e8730a"/>
<circle cx="409.2" cy="172.9" r="2.5" fill="#e8730a"/>
<circle cx="421.5" cy="161.9" r="2.5" fill="#e8730a"/>
<circle cx="433.8" cy="160.0" r="2.5" fill="#e8730a"/>
<circle cx="446.2" cy="157.4" r="2.5" fill="#e8730a"/>
<circle cx="532.3" cy="156.1" r="2.5" fill="#e8730a"/>
<circle cx="544.6" cy="146.5" r="2.5" fill="#e8730a"/>
<circle cx="556.9" cy="138.7" r="2.5" fill="#e8730a"/>
<circle cx="569.2" cy="115.5" r="2.5" fill="#e8730a"/>
<circle cx="581.5" cy="92.9" r="2.5" fill="#e8730a"/>
<circle cx="593.8" cy="81.9" r="2.5" fill="#e8730a"/>
<circle cx="606.2" cy="80.6" r="2.5" fill="#e8730a"/>
<circle cx="618.5" cy="77.4" r="2.5" fill="#e8730a"/>
<circle cx="630.8" cy="73.5" r="2.5" fill="#e8730a"/>
<circle cx="643.1" cy="57.4" r="2.5" fill="#e8730a"/>
<circle cx="655.4" cy="44.5" r="2.5" fill="#e8730a"/>
<circle cx="667.7" cy="41.3" r="2.5" fill="#e8730a"/>
<circle cx="680.0" cy="40.0" r="2.5" fill="#e8730a"/>
<text x="40" y="288">2026-05-20</text>
<text x="610" y="288">2026-07-11</text>
<text x="40" y="20">cumulative bugs surfaced: 341</text>
</svg>