<svg xmlns="http://www.w3.org/2000/svg" width="720" height="300" font-family="monospace" font-size="12">
<rect width="720" height="300" fill="white"/>
<polyline fill="none" stroke="#e8730a" stroke-width="2" points="40.0,259.1 112.7,258.3 301.8,254.0 316.4,253.2 330.9,251.5 345.5,245.5 360.0,237.8 374.5,225.9 389.1,208.8 403.6,181.6 418.2,175.6 432.7,174.7 447.3,167.1 461.8,156.8 476.4,144.9 490.9,130.4 505.5,127.8 520.0,124.4 621.8,122.7 636.4,109.9 650.9,99.7 665.5,69.0 680.0,40.0"/>
<circle cx="40.0" cy="259.1" r="2.5" fill="#e8730a"/>
<circle cx="112.7" cy="258.3" r="2.5" fill="#e8730a"/>
<circle cx="301.8" cy="254.0" r="2.5" fill="#e8730a"/>
<circle cx="316.4" cy="253.2" r="2.5" fill="#e8730a"/>
<circle cx="330.9" cy="251.5" r="2.5" fill="#e8730a"/>
<circle cx="345.5" cy="245.5" r="2.5" fill="#e8730a"/>
<circle cx="360.0" cy="237.8" r="2.5" fill="#e8730a"/>
<circle cx="374.5" cy="225.9" r="2.5" fill="#e8730a"/>
<circle cx="389.1" cy="208.8" r="2.5" fill="#e8730a"/>
<circle cx="403.6" cy="181.6" r="2.5" fill="#e8730a"/>
<circle cx="418.2" cy="175.6" r="2.5" fill="#e8730a"/>
<circle cx="432.7" cy="174.7" r="2.5" fill="#e8730a"/>
<circle cx="447.3" cy="167.1" r="2.5" fill="#e8730a"/>
<circle cx="461.8" cy="156.8" r="2.5" fill="#e8730a"/>
<circle cx="476.4" cy="144.9" r="2.5" fill="#e8730a"/>
<circle cx="490.9" cy="130.4" r="2.5" fill="#e8730a"/>
<circle cx="505.5" cy="127.8" r="2.5" fill="#e8730a"/>
<circle cx="520.0" cy="124.4" r="2.5" fill="#e8730a"/>
<circle cx="621.8" cy="122.7" r="2.5" fill="#e8730a"/>
<circle cx="636.4" cy="109.9" r="2.5" fill="#e8730a"/>
<circle cx="650.9" cy="99.7" r="2.5" fill="#e8730a"/>
<circle cx="665.5" cy="69.0" r="2.5" fill="#e8730a"/>
<circle cx="680.0" cy="40.0" r="2.5" fill="#e8730a"/>
<text x="40" y="288">2026-05-20</text>
<text x="610" y="288">2026-07-03</text>
<text x="40" y="20">cumulative bugs surfaced: 258</text>
</svg>