<svg xmlns="http://www.w3.org/2000/svg" width="720" height="300" font-family="monospace" font-size="12">
<rect width="720" height="300" fill="white"/>
<polyline fill="none" stroke="#e8730a" stroke-width="2" points="40.0,257.8 158.5,255.6 466.7,244.6 490.4,242.4 514.1,238.0 537.8,222.6 561.5,202.8 585.2,172.0 608.9,128.0 632.6,57.6 656.3,42.2 680.0,40.0"/>
<circle cx="40.0" cy="257.8" r="2.5" fill="#e8730a"/>
<circle cx="158.5" cy="255.6" r="2.5" fill="#e8730a"/>
<circle cx="466.7" cy="244.6" r="2.5" fill="#e8730a"/>
<circle cx="490.4" cy="242.4" r="2.5" fill="#e8730a"/>
<circle cx="514.1" cy="238.0" r="2.5" fill="#e8730a"/>
<circle cx="537.8" cy="222.6" r="2.5" fill="#e8730a"/>
<circle cx="561.5" cy="202.8" r="2.5" fill="#e8730a"/>
<circle cx="585.2" cy="172.0" r="2.5" fill="#e8730a"/>
<circle cx="608.9" cy="128.0" r="2.5" fill="#e8730a"/>
<circle cx="632.6" cy="57.6" r="2.5" fill="#e8730a"/>
<circle cx="656.3" cy="42.2" r="2.5" fill="#e8730a"/>
<circle cx="680.0" cy="40.0" r="2.5" fill="#e8730a"/>
<text x="40" y="288">2026-05-20</text>
<text x="610" y="288">2026-06-16</text>
<text x="40" y="20">cumulative bugs surfaced: 100</text>
</svg>