<svg xmlns="http://www.w3.org/2000/svg" width="720" height="300" font-family="monospace" font-size="12">
<rect width="720" height="300" fill="white"/>
<polyline fill="none" stroke="#e8730a" stroke-width="2" points="40.0,257.5 168.0,255.0 500.8,242.5 526.4,240.0 552.0,235.0 577.6,217.5 603.2,195.0 628.8,160.0 654.4,110.0 680.0,40.0"/>
<circle cx="40.0" cy="257.5" r="2.5" fill="#e8730a"/>
<circle cx="168.0" cy="255.0" r="2.5" fill="#e8730a"/>
<circle cx="500.8" cy="242.5" r="2.5" fill="#e8730a"/>
<circle cx="526.4" cy="240.0" r="2.5" fill="#e8730a"/>
<circle cx="552.0" cy="235.0" r="2.5" fill="#e8730a"/>
<circle cx="577.6" cy="217.5" r="2.5" fill="#e8730a"/>
<circle cx="603.2" cy="195.0" r="2.5" fill="#e8730a"/>
<circle cx="628.8" cy="160.0" r="2.5" fill="#e8730a"/>
<circle cx="654.4" cy="110.0" r="2.5" fill="#e8730a"/>
<circle cx="680.0" cy="40.0" r="2.5" fill="#e8730a"/>
<text x="40" y="288">2026-05-20</text>
<text x="610" y="288">2026-06-14</text>
<text x="40" y="20">cumulative bugs surfaced: 88</text>
</svg>