<svg xmlns="http://www.w3.org/2000/svg" width="720" height="300" font-family="monospace" font-size="12">
<rect width="720" height="300" fill="white"/>
<polyline fill="none" stroke="#e8730a" stroke-width="2" points="40.0,259.1 112.7,258.2 301.8,253.7 316.4,252.8 330.9,251.1 345.5,244.8 360.0,236.7 374.5,224.2 389.1,206.3 403.6,177.7 418.2,171.5 432.7,170.6 447.3,162.5 461.8,151.8 476.4,139.3 490.9,124.1 505.5,121.4 520.0,117.8 621.8,116.0 636.4,102.6 650.9,91.9 665.5,59.7 680.0,40.0"/>
<circle cx="40.0" cy="259.1" r="2.5" fill="#e8730a"/>
<circle cx="112.7" cy="258.2" r="2.5" fill="#e8730a"/>
<circle cx="301.8" cy="253.7" r="2.5" fill="#e8730a"/>
<circle cx="316.4" cy="252.8" r="2.5" fill="#e8730a"/>
<circle cx="330.9" cy="251.1" r="2.5" fill="#e8730a"/>
<circle cx="345.5" cy="244.8" r="2.5" fill="#e8730a"/>
<circle cx="360.0" cy="236.7" r="2.5" fill="#e8730a"/>
<circle cx="374.5" cy="224.2" r="2.5" fill="#e8730a"/>
<circle cx="389.1" cy="206.3" r="2.5" fill="#e8730a"/>
<circle cx="403.6" cy="177.7" r="2.5" fill="#e8730a"/>
<circle cx="418.2" cy="171.5" r="2.5" fill="#e8730a"/>
<circle cx="432.7" cy="170.6" r="2.5" fill="#e8730a"/>
<circle cx="447.3" cy="162.5" r="2.5" fill="#e8730a"/>
<circle cx="461.8" cy="151.8" r="2.5" fill="#e8730a"/>
<circle cx="476.4" cy="139.3" r="2.5" fill="#e8730a"/>
<circle cx="490.9" cy="124.1" r="2.5" fill="#e8730a"/>
<circle cx="505.5" cy="121.4" r="2.5" fill="#e8730a"/>
<circle cx="520.0" cy="117.8" r="2.5" fill="#e8730a"/>
<circle cx="621.8" cy="116.0" r="2.5" fill="#e8730a"/>
<circle cx="636.4" cy="102.6" r="2.5" fill="#e8730a"/>
<circle cx="650.9" cy="91.9" r="2.5" fill="#e8730a"/>
<circle cx="665.5" cy="59.7" r="2.5" fill="#e8730a"/>
<circle cx="680.0" cy="40.0" r="2.5" fill="#e8730a"/>
<text x="40" y="288">2026-05-20</text>
<text x="610" y="288">2026-07-03</text>
<text x="40" y="20">cumulative bugs surfaced: 246</text>
</svg>