<svg xmlns="http://www.w3.org/2000/svg" width="720" height="300" font-family="monospace" font-size="12">
<rect width="720" height="300" fill="white"/>
<polyline fill="none" stroke="#e8730a" stroke-width="2" points="40.0,259.3 105.3,258.6 275.1,255.1 288.2,254.4 301.2,253.0 314.3,248.1 327.3,241.7 340.4,231.9 353.5,217.8 366.5,195.3 379.6,190.4 392.7,189.7 405.7,183.4 418.8,175.0 431.8,165.1 444.9,153.2 458.0,151.1 471.0,148.2 562.4,146.8 575.5,136.3 588.6,127.9 601.6,102.6 614.7,78.0 627.8,66.0 640.8,64.6 653.9,61.1 666.9,56.9 680.0,40.0"/>
<circle cx="40.0" cy="259.3" r="2.5" fill="#e8730a"/>
<circle cx="105.3" cy="258.6" r="2.5" fill="#e8730a"/>
<circle cx="275.1" cy="255.1" r="2.5" fill="#e8730a"/>
<circle cx="288.2" cy="254.4" r="2.5" fill="#e8730a"/>
<circle cx="301.2" cy="253.0" r="2.5" fill="#e8730a"/>
<circle cx="314.3" cy="248.1" r="2.5" fill="#e8730a"/>
<circle cx="327.3" cy="241.7" r="2.5" fill="#e8730a"/>
<circle cx="340.4" cy="231.9" r="2.5" fill="#e8730a"/>
<circle cx="353.5" cy="217.8" r="2.5" fill="#e8730a"/>
<circle cx="366.5" cy="195.3" r="2.5" fill="#e8730a"/>
<circle cx="379.6" cy="190.4" r="2.5" fill="#e8730a"/>
<circle cx="392.7" cy="189.7" r="2.5" fill="#e8730a"/>
<circle cx="405.7" cy="183.4" r="2.5" fill="#e8730a"/>
<circle cx="418.8" cy="175.0" r="2.5" fill="#e8730a"/>
<circle cx="431.8" cy="165.1" r="2.5" fill="#e8730a"/>
<circle cx="444.9" cy="153.2" r="2.5" fill="#e8730a"/>
<circle cx="458.0" cy="151.1" r="2.5" fill="#e8730a"/>
<circle cx="471.0" cy="148.2" r="2.5" fill="#e8730a"/>
<circle cx="562.4" cy="146.8" r="2.5" fill="#e8730a"/>
<circle cx="575.5" cy="136.3" r="2.5" fill="#e8730a"/>
<circle cx="588.6" cy="127.9" r="2.5" fill="#e8730a"/>
<circle cx="601.6" cy="102.6" r="2.5" fill="#e8730a"/>
<circle cx="614.7" cy="78.0" r="2.5" fill="#e8730a"/>
<circle cx="627.8" cy="66.0" r="2.5" fill="#e8730a"/>
<circle cx="640.8" cy="64.6" r="2.5" fill="#e8730a"/>
<circle cx="653.9" cy="61.1" r="2.5" fill="#e8730a"/>
<circle cx="666.9" cy="56.9" r="2.5" fill="#e8730a"/>
<circle cx="680.0" cy="40.0" r="2.5" fill="#e8730a"/>
<text x="40" y="288">2026-05-20</text>
<text x="610" y="288">2026-07-08</text>
<text x="40" y="20">cumulative bugs surfaced: 313</text>
</svg>