<svg xmlns="http://www.w3.org/2000/svg" width="720" height="300" font-family="monospace" font-size="12">
<rect width="720" height="300" fill="white"/>
<polyline fill="none" stroke="#e8730a" stroke-width="2" points="40.0,259.1 112.7,258.3 301.8,254.0 316.4,253.2 330.9,251.4 345.5,245.4 360.0,237.7 374.5,225.8 389.1,208.6 403.6,181.2 418.2,175.3 432.7,174.4 447.3,166.7 461.8,156.4 476.4,144.4 490.9,129.9 505.5,127.3 520.0,123.9 621.8,122.2 636.4,109.3 650.9,99.1 665.5,68.2 680.0,40.0"/>
<circle cx="40.0" cy="259.1" r="2.5" fill="#e8730a"/>
<circle cx="112.7" cy="258.3" r="2.5" fill="#e8730a"/>
<circle cx="301.8" cy="254.0" r="2.5" fill="#e8730a"/>
<circle cx="316.4" cy="253.2" r="2.5" fill="#e8730a"/>
<circle cx="330.9" cy="251.4" r="2.5" fill="#e8730a"/>
<circle cx="345.5" cy="245.4" r="2.5" fill="#e8730a"/>
<circle cx="360.0" cy="237.7" r="2.5" fill="#e8730a"/>
<circle cx="374.5" cy="225.8" r="2.5" fill="#e8730a"/>
<circle cx="389.1" cy="208.6" r="2.5" fill="#e8730a"/>
<circle cx="403.6" cy="181.2" r="2.5" fill="#e8730a"/>
<circle cx="418.2" cy="175.3" r="2.5" fill="#e8730a"/>
<circle cx="432.7" cy="174.4" r="2.5" fill="#e8730a"/>
<circle cx="447.3" cy="166.7" r="2.5" fill="#e8730a"/>
<circle cx="461.8" cy="156.4" r="2.5" fill="#e8730a"/>
<circle cx="476.4" cy="144.4" r="2.5" fill="#e8730a"/>
<circle cx="490.9" cy="129.9" r="2.5" fill="#e8730a"/>
<circle cx="505.5" cy="127.3" r="2.5" fill="#e8730a"/>
<circle cx="520.0" cy="123.9" r="2.5" fill="#e8730a"/>
<circle cx="621.8" cy="122.2" r="2.5" fill="#e8730a"/>
<circle cx="636.4" cy="109.3" r="2.5" fill="#e8730a"/>
<circle cx="650.9" cy="99.1" r="2.5" fill="#e8730a"/>
<circle cx="665.5" cy="68.2" r="2.5" fill="#e8730a"/>
<circle cx="680.0" cy="40.0" r="2.5" fill="#e8730a"/>
<text x="40" y="288">2026-05-20</text>
<text x="610" y="288">2026-07-03</text>
<text x="40" y="20">cumulative bugs surfaced: 257</text>
</svg>