<svg xmlns="http://www.w3.org/2000/svg" width="720" height="300" font-family="monospace" font-size="12">
<rect width="720" height="300" fill="white"/>
<polyline fill="none" stroke="#e8730a" stroke-width="2" points="40.0,258.7 118.0,257.4 321.0,250.8 336.6,249.5 352.2,246.8 367.8,237.6 383.4,225.7 399.0,207.3 414.6,181.0 430.2,138.8 445.9,129.6 461.5,128.3 477.1,116.4 492.7,100.6 508.3,82.2 523.9,59.8 539.5,55.8 555.1,50.5 664.4,47.9 680.0,40.0"/>
<circle cx="40.0" cy="258.7" r="2.5" fill="#e8730a"/>
<circle cx="118.0" cy="257.4" r="2.5" fill="#e8730a"/>
<circle cx="321.0" cy="250.8" r="2.5" fill="#e8730a"/>
<circle cx="336.6" cy="249.5" r="2.5" fill="#e8730a"/>
<circle cx="352.2" cy="246.8" r="2.5" fill="#e8730a"/>
<circle cx="367.8" cy="237.6" r="2.5" fill="#e8730a"/>
<circle cx="383.4" cy="225.7" r="2.5" fill="#e8730a"/>
<circle cx="399.0" cy="207.3" r="2.5" fill="#e8730a"/>
<circle cx="414.6" cy="181.0" r="2.5" fill="#e8730a"/>
<circle cx="430.2" cy="138.8" r="2.5" fill="#e8730a"/>
<circle cx="445.9" cy="129.6" r="2.5" fill="#e8730a"/>
<circle cx="461.5" cy="128.3" r="2.5" fill="#e8730a"/>
<circle cx="477.1" cy="116.4" r="2.5" fill="#e8730a"/>
<circle cx="492.7" cy="100.6" r="2.5" fill="#e8730a"/>
<circle cx="508.3" cy="82.2" r="2.5" fill="#e8730a"/>
<circle cx="523.9" cy="59.8" r="2.5" fill="#e8730a"/>
<circle cx="539.5" cy="55.8" r="2.5" fill="#e8730a"/>
<circle cx="555.1" cy="50.5" r="2.5" fill="#e8730a"/>
<circle cx="664.4" cy="47.9" r="2.5" fill="#e8730a"/>
<circle cx="680.0" cy="40.0" r="2.5" fill="#e8730a"/>
<text x="40" y="288">2026-05-20</text>
<text x="610" y="288">2026-06-30</text>
<text x="40" y="20">cumulative bugs surfaced: 167</text>
</svg>