<svg xmlns="http://www.w3.org/2000/svg" width="720" height="300" font-family="monospace" font-size="12">
<rect width="720" height="300" fill="white"/>
<polyline fill="none" stroke="#e8730a" stroke-width="2" points="40.0,257.2 168.0,254.5 500.8,240.8 526.4,238.0 552.0,232.5 577.6,213.2 603.2,188.5 628.8,150.0 654.4,95.0 680.0,40.0"/>
<circle cx="40.0" cy="257.2" r="2.5" fill="#e8730a"/>
<circle cx="168.0" cy="254.5" r="2.5" fill="#e8730a"/>
<circle cx="500.8" cy="240.8" r="2.5" fill="#e8730a"/>
<circle cx="526.4" cy="238.0" r="2.5" fill="#e8730a"/>
<circle cx="552.0" cy="232.5" r="2.5" fill="#e8730a"/>
<circle cx="577.6" cy="213.2" r="2.5" fill="#e8730a"/>
<circle cx="603.2" cy="188.5" r="2.5" fill="#e8730a"/>
<circle cx="628.8" cy="150.0" r="2.5" fill="#e8730a"/>
<circle cx="654.4" cy="95.0" r="2.5" fill="#e8730a"/>
<circle cx="680.0" cy="40.0" r="2.5" fill="#e8730a"/>
<text x="40" y="288">2026-05-20</text>
<text x="610" y="288">2026-06-14</text>
<text x="40" y="20">cumulative bugs surfaced: 80</text>
</svg>