<svg xmlns="http://www.w3.org/2000/svg" width="720" height="300" font-family="monospace" font-size="12">
<rect width="720" height="300" fill="white"/>
<polyline fill="none" stroke="#e8730a" stroke-width="2" points="40.0,257.9 154.3,255.9 451.4,245.6 474.3,243.6 497.1,239.4 520.0,225.0 542.9,206.5 565.7,177.8 588.6,136.6 611.4,70.8 634.3,56.4 657.1,54.4 680.0,40.0"/>
<circle cx="40.0" cy="257.9" r="2.5" fill="#e8730a"/>
<circle cx="154.3" cy="255.9" r="2.5" fill="#e8730a"/>
<circle cx="451.4" cy="245.6" r="2.5" fill="#e8730a"/>
<circle cx="474.3" cy="243.6" r="2.5" fill="#e8730a"/>
<circle cx="497.1" cy="239.4" r="2.5" fill="#e8730a"/>
<circle cx="520.0" cy="225.0" r="2.5" fill="#e8730a"/>
<circle cx="542.9" cy="206.5" r="2.5" fill="#e8730a"/>
<circle cx="565.7" cy="177.8" r="2.5" fill="#e8730a"/>
<circle cx="588.6" cy="136.6" r="2.5" fill="#e8730a"/>
<circle cx="611.4" cy="70.8" r="2.5" fill="#e8730a"/>
<circle cx="634.3" cy="56.4" r="2.5" fill="#e8730a"/>
<circle cx="657.1" cy="54.4" r="2.5" fill="#e8730a"/>
<circle cx="680.0" cy="40.0" r="2.5" fill="#e8730a"/>
<text x="40" y="288">2026-05-20</text>
<text x="610" y="288">2026-06-17</text>
<text x="40" y="20">cumulative bugs surfaced: 107</text>
</svg>