<svg xmlns="http://www.w3.org/2000/svg" width="720" height="300" font-family="monospace" font-size="12">
<rect width="720" height="300" fill="white"/>
<polyline fill="none" stroke="#e8730a" stroke-width="2" points="40.0,259.1 112.7,258.2 301.8,253.6 316.4,252.7 330.9,250.8 345.5,244.4 360.0,236.2 374.5,223.3 389.1,205.0 403.6,175.7 418.2,169.2 432.7,168.3 447.3,160.1 461.8,149.1 476.4,136.2 490.9,120.7 505.5,117.9 520.0,114.2 621.8,112.4 636.4,98.7 650.9,87.7 665.5,54.7 680.0,40.0"/>
<circle cx="40.0" cy="259.1" r="2.5" fill="#e8730a"/>
<circle cx="112.7" cy="258.2" r="2.5" fill="#e8730a"/>
<circle cx="301.8" cy="253.6" r="2.5" fill="#e8730a"/>
<circle cx="316.4" cy="252.7" r="2.5" fill="#e8730a"/>
<circle cx="330.9" cy="250.8" r="2.5" fill="#e8730a"/>
<circle cx="345.5" cy="244.4" r="2.5" fill="#e8730a"/>
<circle cx="360.0" cy="236.2" r="2.5" fill="#e8730a"/>
<circle cx="374.5" cy="223.3" r="2.5" fill="#e8730a"/>
<circle cx="389.1" cy="205.0" r="2.5" fill="#e8730a"/>
<circle cx="403.6" cy="175.7" r="2.5" fill="#e8730a"/>
<circle cx="418.2" cy="169.2" r="2.5" fill="#e8730a"/>
<circle cx="432.7" cy="168.3" r="2.5" fill="#e8730a"/>
<circle cx="447.3" cy="160.1" r="2.5" fill="#e8730a"/>
<circle cx="461.8" cy="149.1" r="2.5" fill="#e8730a"/>
<circle cx="476.4" cy="136.2" r="2.5" fill="#e8730a"/>
<circle cx="490.9" cy="120.7" r="2.5" fill="#e8730a"/>
<circle cx="505.5" cy="117.9" r="2.5" fill="#e8730a"/>
<circle cx="520.0" cy="114.2" r="2.5" fill="#e8730a"/>
<circle cx="621.8" cy="112.4" r="2.5" fill="#e8730a"/>
<circle cx="636.4" cy="98.7" r="2.5" fill="#e8730a"/>
<circle cx="650.9" cy="87.7" r="2.5" fill="#e8730a"/>
<circle cx="665.5" cy="54.7" r="2.5" fill="#e8730a"/>
<circle cx="680.0" cy="40.0" r="2.5" fill="#e8730a"/>
<text x="40" y="288">2026-05-20</text>
<text x="610" y="288">2026-07-03</text>
<text x="40" y="20">cumulative bugs surfaced: 240</text>
</svg>