<svg xmlns="http://www.w3.org/2000/svg" width="720" height="300" font-family="monospace" font-size="12">
<rect width="720" height="300" fill="white"/>
<polyline fill="none" stroke="#e8730a" stroke-width="2" points="40.0,259.8 77.6,259.6 175.5,258.7 183.1,258.5 190.6,258.1 198.1,256.7 205.6,255.0 213.2,252.3 220.7,248.5 228.2,242.3 235.8,241.0 243.3,240.8 250.8,239.0 258.4,236.7 265.9,234.0 273.4,230.8 280.9,230.2 288.5,229.4 341.2,229.0 348.7,226.2 356.2,223.8 363.8,216.9 371.3,210.2 378.8,206.9 386.4,206.5 393.9,205.6 401.4,204.4 408.9,199.6 416.5,195.8 424.0,194.2 431.5,186.5 439.1,180.6 446.6,176.5 454.1,172.3 461.6,167.1 469.2,162.5 476.7,158.5 484.2,149.2 491.8,145.8 499.3,143.1 506.8,139.2 514.4,136.5 521.9,131.0 529.4,130.4 536.9,129.4 544.5,129.0 552.0,126.2 559.5,122.9 567.1,115.4 574.6,111.9 582.1,103.3 589.6,96.3 597.2,91.5 604.7,88.7 612.2,83.5 619.8,76.9 627.3,70.4 634.8,65.2 642.4,59.6 649.9,55.6 657.4,53.1 664.9,46.3 672.5,40.2 680.0,40.0"/>
<circle cx="40.0" cy="259.8" r="2.5" fill="#e8730a"/>
<circle cx="77.6" cy="259.6" r="2.5" fill="#e8730a"/>
<circle cx="175.5" cy="258.7" r="2.5" fill="#e8730a"/>
<circle cx="183.1" cy="258.5" r="2.5" fill="#e8730a"/>
<circle cx="190.6" cy="258.1" r="2.5" fill="#e8730a"/>
<circle cx="198.1" cy="256.7" r="2.5" fill="#e8730a"/>
<circle cx="205.6" cy="255.0" r="2.5" fill="#e8730a"/>
<circle cx="213.2" cy="252.3" r="2.5" fill="#e8730a"/>
<circle cx="220.7" cy="248.5" r="2.5" fill="#e8730a"/>
<circle cx="228.2" cy="242.3" r="2.5" fill="#e8730a"/>
<circle cx="235.8" cy="241.0" r="2.5" fill="#e8730a"/>
<circle cx="243.3" cy="240.8" r="2.5" fill="#e8730a"/>
<circle cx="250.8" cy="239.0" r="2.5" fill="#e8730a"/>
<circle cx="258.4" cy="236.7" r="2.5" fill="#e8730a"/>
<circle cx="265.9" cy="234.0" r="2.5" fill="#e8730a"/>
<circle cx="273.4" cy="230.8" r="2.5" fill="#e8730a"/>
<circle cx="280.9" cy="230.2" r="2.5" fill="#e8730a"/>
<circle cx="288.5" cy="229.4" r="2.5" fill="#e8730a"/>
<circle cx="341.2" cy="229.0" r="2.5" fill="#e8730a"/>
<circle cx="348.7" cy="226.2" r="2.5" fill="#e8730a"/>
<circle cx="356.2" cy="223.8" r="2.5" fill="#e8730a"/>
<circle cx="363.8" cy="216.9" r="2.5" fill="#e8730a"/>
<circle cx="371.3" cy="210.2" r="2.5" fill="#e8730a"/>
<circle cx="378.8" cy="206.9" r="2.5" fill="#e8730a"/>
<circle cx="386.4" cy="206.5" r="2.5" fill="#e8730a"/>
<circle cx="393.9" cy="205.6" r="2.5" fill="#e8730a"/>
<circle cx="401.4" cy="204.4" r="2.5" fill="#e8730a"/>
<circle cx="408.9" cy="199.6" r="2.5" fill="#e8730a"/>
<circle cx="416.5" cy="195.8" r="2.5" fill="#e8730a"/>
<circle cx="424.0" cy="194.2" r="2.5" fill="#e8730a"/>
<circle cx="431.5" cy="186.5" r="2.5" fill="#e8730a"/>
<circle cx="439.1" cy="180.6" r="2.5" fill="#e8730a"/>
<circle cx="446.6" cy="176.5" r="2.5" fill="#e8730a"/>
<circle cx="454.1" cy="172.3" r="2.5" fill="#e8730a"/>
<circle cx="461.6" cy="167.1" r="2.5" fill="#e8730a"/>
<circle cx="469.2" cy="162.5" r="2.5" fill="#e8730a"/>
<circle cx="476.7" cy="158.5" r="2.5" fill="#e8730a"/>
<circle cx="484.2" cy="149.2" r="2.5" fill="#e8730a"/>
<circle cx="491.8" cy="145.8" r="2.5" fill="#e8730a"/>
<circle cx="499.3" cy="143.1" r="2.5" fill="#e8730a"/>
<circle cx="506.8" cy="139.2" r="2.5" fill="#e8730a"/>
<circle cx="514.4" cy="136.5" r="2.5" fill="#e8730a"/>
<circle cx="521.9" cy="131.0" r="2.5" fill="#e8730a"/>
<circle cx="529.4" cy="130.4" r="2.5" fill="#e8730a"/>
<circle cx="536.9" cy="129.4" r="2.5" fill="#e8730a"/>
<circle cx="544.5" cy="129.0" r="2.5" fill="#e8730a"/>
<circle cx="552.0" cy="126.2" r="2.5" fill="#e8730a"/>
<circle cx="559.5" cy="122.9" r="2.5" fill="#e8730a"/>
<circle cx="567.1" cy="115.4" r="2.5" fill="#e8730a"/>
<circle cx="574.6" cy="111.9" r="2.5" fill="#e8730a"/>
<circle cx="582.1" cy="103.3" r="2.5" fill="#e8730a"/>
<circle cx="589.6" cy="96.3" r="2.5" fill="#e8730a"/>
<circle cx="597.2" cy="91.5" r="2.5" fill="#e8730a"/>
<circle cx="604.7" cy="88.7" r="2.5" fill="#e8730a"/>
<circle cx="612.2" cy="83.5" r="2.5" fill="#e8730a"/>
<circle cx="619.8" cy="76.9" r="2.5" fill="#e8730a"/>
<circle cx="627.3" cy="70.4" r="2.5" fill="#e8730a"/>
<circle cx="634.8" cy="65.2" r="2.5" fill="#e8730a"/>
<circle cx="642.4" cy="59.6" r="2.5" fill="#e8730a"/>
<circle cx="649.9" cy="55.6" r="2.5" fill="#e8730a"/>
<circle cx="657.4" cy="53.1" r="2.5" fill="#e8730a"/>
<circle cx="664.9" cy="46.3" r="2.5" fill="#e8730a"/>
<circle cx="672.5" cy="40.2" r="2.5" fill="#e8730a"/>
<circle cx="680.0" cy="40.0" r="2.5" fill="#e8730a"/>
<text x="40" y="288">2026-05-20</text>
<text x="610" y="288">2026-08-13</text>
<text x="40" y="20">cumulative bugs surfaced: 1144</text>
</svg>