<svg xmlns="http://www.w3.org/2000/svg" width="720" height="300" font-family="monospace" font-size="12">
<rect width="720" height="300" fill="white"/>
<polyline fill="none" stroke="#e8730a" stroke-width="2" points="40.0,258.4 146.7,256.7 424.0,248.6 445.3,247.0 466.7,243.7 488.0,232.3 509.3,217.6 530.7,194.8 552.0,162.2 573.3,110.1 594.7,98.7 616.0,97.0 637.3,82.4 658.7,62.8 680.0,40.0"/>
<circle cx="40.0" cy="258.4" r="2.5" fill="#e8730a"/>
<circle cx="146.7" cy="256.7" r="2.5" fill="#e8730a"/>
<circle cx="424.0" cy="248.6" r="2.5" fill="#e8730a"/>
<circle cx="445.3" cy="247.0" r="2.5" fill="#e8730a"/>
<circle cx="466.7" cy="243.7" r="2.5" fill="#e8730a"/>
<circle cx="488.0" cy="232.3" r="2.5" fill="#e8730a"/>
<circle cx="509.3" cy="217.6" r="2.5" fill="#e8730a"/>
<circle cx="530.7" cy="194.8" r="2.5" fill="#e8730a"/>
<circle cx="552.0" cy="162.2" r="2.5" fill="#e8730a"/>
<circle cx="573.3" cy="110.1" r="2.5" fill="#e8730a"/>
<circle cx="594.7" cy="98.7" r="2.5" fill="#e8730a"/>
<circle cx="616.0" cy="97.0" r="2.5" fill="#e8730a"/>
<circle cx="637.3" cy="82.4" r="2.5" fill="#e8730a"/>
<circle cx="658.7" cy="62.8" r="2.5" fill="#e8730a"/>
<circle cx="680.0" cy="40.0" r="2.5" fill="#e8730a"/>
<text x="40" y="288">2026-05-20</text>
<text x="610" y="288">2026-06-19</text>
<text x="40" y="20">cumulative bugs surfaced: 135</text>
</svg>