<svg xmlns="http://www.w3.org/2000/svg" width="720" height="300" font-family="monospace" font-size="12">
<rect width="720" height="300" fill="white"/>
<polyline fill="none" stroke="#e8730a" stroke-width="2" points="40.0,259.0 114.4,257.9 307.9,252.8 322.8,251.8 337.7,249.7 352.6,242.5 367.4,233.3 382.3,218.9 397.2,198.3 412.1,165.4 427.0,158.2 441.9,157.2 456.7,147.9 471.6,135.6 486.5,121.2 501.4,103.7 516.3,100.7 531.2,96.5 635.3,94.5 650.2,79.1 665.1,66.7 680.0,40.0"/>
<circle cx="40.0" cy="259.0" r="2.5" fill="#e8730a"/>
<circle cx="114.4" cy="257.9" r="2.5" fill="#e8730a"/>
<circle cx="307.9" cy="252.8" r="2.5" fill="#e8730a"/>
<circle cx="322.8" cy="251.8" r="2.5" fill="#e8730a"/>
<circle cx="337.7" cy="249.7" r="2.5" fill="#e8730a"/>
<circle cx="352.6" cy="242.5" r="2.5" fill="#e8730a"/>
<circle cx="367.4" cy="233.3" r="2.5" fill="#e8730a"/>
<circle cx="382.3" cy="218.9" r="2.5" fill="#e8730a"/>
<circle cx="397.2" cy="198.3" r="2.5" fill="#e8730a"/>
<circle cx="412.1" cy="165.4" r="2.5" fill="#e8730a"/>
<circle cx="427.0" cy="158.2" r="2.5" fill="#e8730a"/>
<circle cx="441.9" cy="157.2" r="2.5" fill="#e8730a"/>
<circle cx="456.7" cy="147.9" r="2.5" fill="#e8730a"/>
<circle cx="471.6" cy="135.6" r="2.5" fill="#e8730a"/>
<circle cx="486.5" cy="121.2" r="2.5" fill="#e8730a"/>
<circle cx="501.4" cy="103.7" r="2.5" fill="#e8730a"/>
<circle cx="516.3" cy="100.7" r="2.5" fill="#e8730a"/>
<circle cx="531.2" cy="96.5" r="2.5" fill="#e8730a"/>
<circle cx="635.3" cy="94.5" r="2.5" fill="#e8730a"/>
<circle cx="650.2" cy="79.1" r="2.5" fill="#e8730a"/>
<circle cx="665.1" cy="66.7" r="2.5" fill="#e8730a"/>
<circle cx="680.0" cy="40.0" r="2.5" fill="#e8730a"/>
<text x="40" y="288">2026-05-20</text>
<text x="610" y="288">2026-07-02</text>
<text x="40" y="20">cumulative bugs surfaced: 214</text>
</svg>