<svg xmlns="http://www.w3.org/2000/svg" width="720" height="300" font-family="monospace" font-size="12">
<rect width="720" height="300" fill="white"/>
<polyline fill="none" stroke="#e8730a" stroke-width="2" points="40.0,259.0 114.4,257.9 307.9,252.8 322.8,251.7 337.7,249.7 352.6,242.4 367.4,233.1 382.3,218.7 397.2,198.0 412.1,165.0 427.0,157.7 441.9,156.7 456.7,147.4 471.6,135.0 486.5,120.6 501.4,103.0 516.3,99.9 531.2,95.8 635.3,93.7 650.2,78.2 665.1,65.8 680.0,40.0"/>
<circle cx="40.0" cy="259.0" r="2.5" fill="#e8730a"/>
<circle cx="114.4" cy="257.9" r="2.5" fill="#e8730a"/>
<circle cx="307.9" cy="252.8" r="2.5" fill="#e8730a"/>
<circle cx="322.8" cy="251.7" r="2.5" fill="#e8730a"/>
<circle cx="337.7" cy="249.7" r="2.5" fill="#e8730a"/>
<circle cx="352.6" cy="242.4" r="2.5" fill="#e8730a"/>
<circle cx="367.4" cy="233.1" r="2.5" fill="#e8730a"/>
<circle cx="382.3" cy="218.7" r="2.5" fill="#e8730a"/>
<circle cx="397.2" cy="198.0" r="2.5" fill="#e8730a"/>
<circle cx="412.1" cy="165.0" r="2.5" fill="#e8730a"/>
<circle cx="427.0" cy="157.7" r="2.5" fill="#e8730a"/>
<circle cx="441.9" cy="156.7" r="2.5" fill="#e8730a"/>
<circle cx="456.7" cy="147.4" r="2.5" fill="#e8730a"/>
<circle cx="471.6" cy="135.0" r="2.5" fill="#e8730a"/>
<circle cx="486.5" cy="120.6" r="2.5" fill="#e8730a"/>
<circle cx="501.4" cy="103.0" r="2.5" fill="#e8730a"/>
<circle cx="516.3" cy="99.9" r="2.5" fill="#e8730a"/>
<circle cx="531.2" cy="95.8" r="2.5" fill="#e8730a"/>
<circle cx="635.3" cy="93.7" r="2.5" fill="#e8730a"/>
<circle cx="650.2" cy="78.2" r="2.5" fill="#e8730a"/>
<circle cx="665.1" cy="65.8" r="2.5" fill="#e8730a"/>
<circle cx="680.0" cy="40.0" r="2.5" fill="#e8730a"/>
<text x="40" y="288">2026-05-20</text>
<text x="610" y="288">2026-07-02</text>
<text x="40" y="20">cumulative bugs surfaced: 213</text>
</svg>