<svg xmlns="http://www.w3.org/2000/svg" width="720" height="300" font-family="monospace" font-size="12">
<rect width="720" height="300" fill="white"/>
<polyline fill="none" stroke="#e8730a" stroke-width="2" points="40.0,259.2 111.1,258.4 296.0,254.4 310.2,253.6 324.4,251.9 338.7,246.3 352.9,239.0 367.1,227.8 381.3,211.6 395.6,185.9 409.8,180.2 424.0,179.4 438.2,172.2 452.4,162.5 466.7,151.2 480.9,137.5 495.1,135.1 509.3,131.9 608.9,130.3 623.1,118.2 637.3,108.5 651.6,79.5 665.8,51.3 680.0,40.0"/>
<circle cx="40.0" cy="259.2" r="2.5" fill="#e8730a"/>
<circle cx="111.1" cy="258.4" r="2.5" fill="#e8730a"/>
<circle cx="296.0" cy="254.4" r="2.5" fill="#e8730a"/>
<circle cx="310.2" cy="253.6" r="2.5" fill="#e8730a"/>
<circle cx="324.4" cy="251.9" r="2.5" fill="#e8730a"/>
<circle cx="338.7" cy="246.3" r="2.5" fill="#e8730a"/>
<circle cx="352.9" cy="239.0" r="2.5" fill="#e8730a"/>
<circle cx="367.1" cy="227.8" r="2.5" fill="#e8730a"/>
<circle cx="381.3" cy="211.6" r="2.5" fill="#e8730a"/>
<circle cx="395.6" cy="185.9" r="2.5" fill="#e8730a"/>
<circle cx="409.8" cy="180.2" r="2.5" fill="#e8730a"/>
<circle cx="424.0" cy="179.4" r="2.5" fill="#e8730a"/>
<circle cx="438.2" cy="172.2" r="2.5" fill="#e8730a"/>
<circle cx="452.4" cy="162.5" r="2.5" fill="#e8730a"/>
<circle cx="466.7" cy="151.2" r="2.5" fill="#e8730a"/>
<circle cx="480.9" cy="137.5" r="2.5" fill="#e8730a"/>
<circle cx="495.1" cy="135.1" r="2.5" fill="#e8730a"/>
<circle cx="509.3" cy="131.9" r="2.5" fill="#e8730a"/>
<circle cx="608.9" cy="130.3" r="2.5" fill="#e8730a"/>
<circle cx="623.1" cy="118.2" r="2.5" fill="#e8730a"/>
<circle cx="637.3" cy="108.5" r="2.5" fill="#e8730a"/>
<circle cx="651.6" cy="79.5" r="2.5" fill="#e8730a"/>
<circle cx="665.8" cy="51.3" r="2.5" fill="#e8730a"/>
<circle cx="680.0" cy="40.0" r="2.5" fill="#e8730a"/>
<text x="40" y="288">2026-05-20</text>
<text x="610" y="288">2026-07-04</text>
<text x="40" y="20">cumulative bugs surfaced: 273</text>
</svg>