<svg xmlns="http://www.w3.org/2000/svg" width="720" height="300" font-family="monospace" font-size="12">
<rect width="720" height="300" fill="white"/>
<polyline fill="none" stroke="#e8730a" stroke-width="2" points="40.0,259.2 106.7,258.4 280.0,254.5 293.3,253.8 306.7,252.2 320.0,246.7 333.3,239.7 346.7,228.8 360.0,213.2 373.3,188.2 386.7,182.8 400.0,182.0 413.3,175.0 426.7,165.6 440.0,154.7 453.3,141.4 466.7,139.1 480.0,136.0 573.3,134.4 586.7,122.7 600.0,113.3 613.3,85.2 626.7,57.9 640.0,44.7 653.3,43.1 666.7,41.6 680.0,40.0"/>
<circle cx="40.0" cy="259.2" r="2.5" fill="#e8730a"/>
<circle cx="106.7" cy="258.4" r="2.5" fill="#e8730a"/>
<circle cx="280.0" cy="254.5" r="2.5" fill="#e8730a"/>
<circle cx="293.3" cy="253.8" r="2.5" fill="#e8730a"/>
<circle cx="306.7" cy="252.2" r="2.5" fill="#e8730a"/>
<circle cx="320.0" cy="246.7" r="2.5" fill="#e8730a"/>
<circle cx="333.3" cy="239.7" r="2.5" fill="#e8730a"/>
<circle cx="346.7" cy="228.8" r="2.5" fill="#e8730a"/>
<circle cx="360.0" cy="213.2" r="2.5" fill="#e8730a"/>
<circle cx="373.3" cy="188.2" r="2.5" fill="#e8730a"/>
<circle cx="386.7" cy="182.8" r="2.5" fill="#e8730a"/>
<circle cx="400.0" cy="182.0" r="2.5" fill="#e8730a"/>
<circle cx="413.3" cy="175.0" r="2.5" fill="#e8730a"/>
<circle cx="426.7" cy="165.6" r="2.5" fill="#e8730a"/>
<circle cx="440.0" cy="154.7" r="2.5" fill="#e8730a"/>
<circle cx="453.3" cy="141.4" r="2.5" fill="#e8730a"/>
<circle cx="466.7" cy="139.1" r="2.5" fill="#e8730a"/>
<circle cx="480.0" cy="136.0" r="2.5" fill="#e8730a"/>
<circle cx="573.3" cy="134.4" r="2.5" fill="#e8730a"/>
<circle cx="586.7" cy="122.7" r="2.5" fill="#e8730a"/>
<circle cx="600.0" cy="113.3" r="2.5" fill="#e8730a"/>
<circle cx="613.3" cy="85.2" r="2.5" fill="#e8730a"/>
<circle cx="626.7" cy="57.9" r="2.5" fill="#e8730a"/>
<circle cx="640.0" cy="44.7" r="2.5" fill="#e8730a"/>
<circle cx="653.3" cy="43.1" r="2.5" fill="#e8730a"/>
<circle cx="666.7" cy="41.6" r="2.5" fill="#e8730a"/>
<circle cx="680.0" cy="40.0" r="2.5" fill="#e8730a"/>
<text x="40" y="288">2026-05-20</text>
<text x="610" y="288">2026-07-07</text>
<text x="40" y="20">cumulative bugs surfaced: 282</text>
</svg>