<svg xmlns="http://www.w3.org/2000/svg" width="720" height="300" font-family="monospace" font-size="12">
<rect width="720" height="300" fill="white"/>
<polyline fill="none" stroke="#e8730a" stroke-width="2" points="40.0,258.8 116.2,257.6 314.3,251.5 329.5,250.3 344.8,247.8 360.0,239.3 375.2,228.4 390.5,211.4 405.7,187.1 421.0,148.2 436.2,139.7 451.4,138.5 466.7,127.5 481.9,112.9 497.1,95.9 512.4,75.2 527.6,71.6 542.9,66.7 649.5,64.3 664.8,46.1 680.0,40.0"/>
<circle cx="40.0" cy="258.8" r="2.5" fill="#e8730a"/>
<circle cx="116.2" cy="257.6" r="2.5" fill="#e8730a"/>
<circle cx="314.3" cy="251.5" r="2.5" fill="#e8730a"/>
<circle cx="329.5" cy="250.3" r="2.5" fill="#e8730a"/>
<circle cx="344.8" cy="247.8" r="2.5" fill="#e8730a"/>
<circle cx="360.0" cy="239.3" r="2.5" fill="#e8730a"/>
<circle cx="375.2" cy="228.4" r="2.5" fill="#e8730a"/>
<circle cx="390.5" cy="211.4" r="2.5" fill="#e8730a"/>
<circle cx="405.7" cy="187.1" r="2.5" fill="#e8730a"/>
<circle cx="421.0" cy="148.2" r="2.5" fill="#e8730a"/>
<circle cx="436.2" cy="139.7" r="2.5" fill="#e8730a"/>
<circle cx="451.4" cy="138.5" r="2.5" fill="#e8730a"/>
<circle cx="466.7" cy="127.5" r="2.5" fill="#e8730a"/>
<circle cx="481.9" cy="112.9" r="2.5" fill="#e8730a"/>
<circle cx="497.1" cy="95.9" r="2.5" fill="#e8730a"/>
<circle cx="512.4" cy="75.2" r="2.5" fill="#e8730a"/>
<circle cx="527.6" cy="71.6" r="2.5" fill="#e8730a"/>
<circle cx="542.9" cy="66.7" r="2.5" fill="#e8730a"/>
<circle cx="649.5" cy="64.3" r="2.5" fill="#e8730a"/>
<circle cx="664.8" cy="46.1" r="2.5" fill="#e8730a"/>
<circle cx="680.0" cy="40.0" r="2.5" fill="#e8730a"/>
<text x="40" y="288">2026-05-20</text>
<text x="610" y="288">2026-07-01</text>
<text x="40" y="20">cumulative bugs surfaced: 181</text>
</svg>