<svg xmlns="http://www.w3.org/2000/svg" width="720" height="300" font-family="monospace" font-size="12">
<rect width="720" height="300" fill="white"/>
<polyline fill="none" stroke="#e8730a" stroke-width="2" points="40.0,259.0 112.7,258.1 301.8,253.3 316.4,252.3 330.9,250.4 345.5,243.7 360.0,235.0 374.5,221.6 389.1,202.4 403.6,171.6 418.2,164.9 432.7,163.9 447.3,155.3 461.8,143.8 476.4,130.3 490.9,114.0 505.5,111.1 520.0,107.2 621.8,105.3 636.4,90.9 650.9,79.4 665.5,44.8 680.0,40.0"/>
<circle cx="40.0" cy="259.0" r="2.5" fill="#e8730a"/>
<circle cx="112.7" cy="258.1" r="2.5" fill="#e8730a"/>
<circle cx="301.8" cy="253.3" r="2.5" fill="#e8730a"/>
<circle cx="316.4" cy="252.3" r="2.5" fill="#e8730a"/>
<circle cx="330.9" cy="250.4" r="2.5" fill="#e8730a"/>
<circle cx="345.5" cy="243.7" r="2.5" fill="#e8730a"/>
<circle cx="360.0" cy="235.0" r="2.5" fill="#e8730a"/>
<circle cx="374.5" cy="221.6" r="2.5" fill="#e8730a"/>
<circle cx="389.1" cy="202.4" r="2.5" fill="#e8730a"/>
<circle cx="403.6" cy="171.6" r="2.5" fill="#e8730a"/>
<circle cx="418.2" cy="164.9" r="2.5" fill="#e8730a"/>
<circle cx="432.7" cy="163.9" r="2.5" fill="#e8730a"/>
<circle cx="447.3" cy="155.3" r="2.5" fill="#e8730a"/>
<circle cx="461.8" cy="143.8" r="2.5" fill="#e8730a"/>
<circle cx="476.4" cy="130.3" r="2.5" fill="#e8730a"/>
<circle cx="490.9" cy="114.0" r="2.5" fill="#e8730a"/>
<circle cx="505.5" cy="111.1" r="2.5" fill="#e8730a"/>
<circle cx="520.0" cy="107.2" r="2.5" fill="#e8730a"/>
<circle cx="621.8" cy="105.3" r="2.5" fill="#e8730a"/>
<circle cx="636.4" cy="90.9" r="2.5" fill="#e8730a"/>
<circle cx="650.9" cy="79.4" r="2.5" fill="#e8730a"/>
<circle cx="665.5" cy="44.8" r="2.5" fill="#e8730a"/>
<circle cx="680.0" cy="40.0" r="2.5" fill="#e8730a"/>
<text x="40" y="288">2026-05-20</text>
<text x="610" y="288">2026-07-03</text>
<text x="40" y="20">cumulative bugs surfaced: 229</text>
</svg>