<svg xmlns="http://www.w3.org/2000/svg" width="720" height="300" font-family="monospace" font-size="12">
<rect width="720" height="300" fill="white"/>
<polyline fill="none" stroke="#e8730a" stroke-width="2" points="40.0,259.2 111.1,258.4 296.0,254.2 310.2,253.4 324.4,251.8 338.7,246.0 352.9,238.6 367.1,227.0 381.3,210.6 395.6,184.2 409.8,178.4 424.0,177.6 438.2,170.2 452.4,160.3 466.7,148.8 480.9,134.8 495.1,132.3 509.3,129.0 608.9,127.3 623.1,115.0 637.3,105.1 651.6,75.4 665.8,46.6 680.0,40.0"/>
<circle cx="40.0" cy="259.2" r="2.5" fill="#e8730a"/>
<circle cx="111.1" cy="258.4" r="2.5" fill="#e8730a"/>
<circle cx="296.0" cy="254.2" r="2.5" fill="#e8730a"/>
<circle cx="310.2" cy="253.4" r="2.5" fill="#e8730a"/>
<circle cx="324.4" cy="251.8" r="2.5" fill="#e8730a"/>
<circle cx="338.7" cy="246.0" r="2.5" fill="#e8730a"/>
<circle cx="352.9" cy="238.6" r="2.5" fill="#e8730a"/>
<circle cx="367.1" cy="227.0" r="2.5" fill="#e8730a"/>
<circle cx="381.3" cy="210.6" r="2.5" fill="#e8730a"/>
<circle cx="395.6" cy="184.2" r="2.5" fill="#e8730a"/>
<circle cx="409.8" cy="178.4" r="2.5" fill="#e8730a"/>
<circle cx="424.0" cy="177.6" r="2.5" fill="#e8730a"/>
<circle cx="438.2" cy="170.2" r="2.5" fill="#e8730a"/>
<circle cx="452.4" cy="160.3" r="2.5" fill="#e8730a"/>
<circle cx="466.7" cy="148.8" r="2.5" fill="#e8730a"/>
<circle cx="480.9" cy="134.8" r="2.5" fill="#e8730a"/>
<circle cx="495.1" cy="132.3" r="2.5" fill="#e8730a"/>
<circle cx="509.3" cy="129.0" r="2.5" fill="#e8730a"/>
<circle cx="608.9" cy="127.3" r="2.5" fill="#e8730a"/>
<circle cx="623.1" cy="115.0" r="2.5" fill="#e8730a"/>
<circle cx="637.3" cy="105.1" r="2.5" fill="#e8730a"/>
<circle cx="651.6" cy="75.4" r="2.5" fill="#e8730a"/>
<circle cx="665.8" cy="46.6" r="2.5" fill="#e8730a"/>
<circle cx="680.0" cy="40.0" r="2.5" fill="#e8730a"/>
<text x="40" y="288">2026-05-20</text>
<text x="610" y="288">2026-07-04</text>
<text x="40" y="20">cumulative bugs surfaced: 267</text>
</svg>