<svg xmlns="http://www.w3.org/2000/svg" width="720" height="300" font-family="monospace" font-size="12">
<rect width="720" height="300" fill="white"/>
<polyline fill="none" stroke="#e8730a" stroke-width="2" points="40.0,259.3 104.0,258.6 270.4,255.2 283.2,254.5 296.0,253.1 308.8,248.3 321.6,242.1 334.4,232.4 347.2,218.6 360.0,196.6 372.8,191.7 385.6,191.0 398.4,184.8 411.2,176.6 424.0,166.9 436.8,155.2 449.6,153.1 462.4,150.3 552.0,149.0 564.8,138.6 577.6,130.3 590.4,105.5 603.2,81.4 616.0,69.7 628.8,68.3 641.6,64.8 654.4,60.7 667.2,44.1 680.0,40.0"/>
<circle cx="40.0" cy="259.3" r="2.5" fill="#e8730a"/>
<circle cx="104.0" cy="258.6" r="2.5" fill="#e8730a"/>
<circle cx="270.4" cy="255.2" r="2.5" fill="#e8730a"/>
<circle cx="283.2" cy="254.5" r="2.5" fill="#e8730a"/>
<circle cx="296.0" cy="253.1" r="2.5" fill="#e8730a"/>
<circle cx="308.8" cy="248.3" r="2.5" fill="#e8730a"/>
<circle cx="321.6" cy="242.1" r="2.5" fill="#e8730a"/>
<circle cx="334.4" cy="232.4" r="2.5" fill="#e8730a"/>
<circle cx="347.2" cy="218.6" r="2.5" fill="#e8730a"/>
<circle cx="360.0" cy="196.6" r="2.5" fill="#e8730a"/>
<circle cx="372.8" cy="191.7" r="2.5" fill="#e8730a"/>
<circle cx="385.6" cy="191.0" r="2.5" fill="#e8730a"/>
<circle cx="398.4" cy="184.8" r="2.5" fill="#e8730a"/>
<circle cx="411.2" cy="176.6" r="2.5" fill="#e8730a"/>
<circle cx="424.0" cy="166.9" r="2.5" fill="#e8730a"/>
<circle cx="436.8" cy="155.2" r="2.5" fill="#e8730a"/>
<circle cx="449.6" cy="153.1" r="2.5" fill="#e8730a"/>
<circle cx="462.4" cy="150.3" r="2.5" fill="#e8730a"/>
<circle cx="552.0" cy="149.0" r="2.5" fill="#e8730a"/>
<circle cx="564.8" cy="138.6" r="2.5" fill="#e8730a"/>
<circle cx="577.6" cy="130.3" r="2.5" fill="#e8730a"/>
<circle cx="590.4" cy="105.5" r="2.5" fill="#e8730a"/>
<circle cx="603.2" cy="81.4" r="2.5" fill="#e8730a"/>
<circle cx="616.0" cy="69.7" r="2.5" fill="#e8730a"/>
<circle cx="628.8" cy="68.3" r="2.5" fill="#e8730a"/>
<circle cx="641.6" cy="64.8" r="2.5" fill="#e8730a"/>
<circle cx="654.4" cy="60.7" r="2.5" fill="#e8730a"/>
<circle cx="667.2" cy="44.1" r="2.5" fill="#e8730a"/>
<circle cx="680.0" cy="40.0" r="2.5" fill="#e8730a"/>
<text x="40" y="288">2026-05-20</text>
<text x="610" y="288">2026-07-09</text>
<text x="40" y="20">cumulative bugs surfaced: 319</text>
</svg>