<svg xmlns="http://www.w3.org/2000/svg" width="720" height="300" font-family="monospace" font-size="12">
<rect width="720" height="300" fill="white"/>
<polyline fill="none" stroke="#e8730a" stroke-width="2" points="40.0,259.1 112.7,258.2 301.8,253.6 316.4,252.7 330.9,250.9 345.5,244.5 360.0,236.3 374.5,223.5 389.1,205.2 403.6,176.0 418.2,169.6 432.7,168.7 447.3,160.5 461.8,149.5 476.4,136.8 490.9,121.2 505.5,118.5 520.0,114.9 621.8,113.0 636.4,99.3 650.9,88.4 665.5,55.5 680.0,40.0"/>
<circle cx="40.0" cy="259.1" r="2.5" fill="#e8730a"/>
<circle cx="112.7" cy="258.2" r="2.5" fill="#e8730a"/>
<circle cx="301.8" cy="253.6" r="2.5" fill="#e8730a"/>
<circle cx="316.4" cy="252.7" r="2.5" fill="#e8730a"/>
<circle cx="330.9" cy="250.9" r="2.5" fill="#e8730a"/>
<circle cx="345.5" cy="244.5" r="2.5" fill="#e8730a"/>
<circle cx="360.0" cy="236.3" r="2.5" fill="#e8730a"/>
<circle cx="374.5" cy="223.5" r="2.5" fill="#e8730a"/>
<circle cx="389.1" cy="205.2" r="2.5" fill="#e8730a"/>
<circle cx="403.6" cy="176.0" r="2.5" fill="#e8730a"/>
<circle cx="418.2" cy="169.6" r="2.5" fill="#e8730a"/>
<circle cx="432.7" cy="168.7" r="2.5" fill="#e8730a"/>
<circle cx="447.3" cy="160.5" r="2.5" fill="#e8730a"/>
<circle cx="461.8" cy="149.5" r="2.5" fill="#e8730a"/>
<circle cx="476.4" cy="136.8" r="2.5" fill="#e8730a"/>
<circle cx="490.9" cy="121.2" r="2.5" fill="#e8730a"/>
<circle cx="505.5" cy="118.5" r="2.5" fill="#e8730a"/>
<circle cx="520.0" cy="114.9" r="2.5" fill="#e8730a"/>
<circle cx="621.8" cy="113.0" r="2.5" fill="#e8730a"/>
<circle cx="636.4" cy="99.3" r="2.5" fill="#e8730a"/>
<circle cx="650.9" cy="88.4" r="2.5" fill="#e8730a"/>
<circle cx="665.5" cy="55.5" r="2.5" fill="#e8730a"/>
<circle cx="680.0" cy="40.0" r="2.5" fill="#e8730a"/>
<text x="40" y="288">2026-05-20</text>
<text x="610" y="288">2026-07-03</text>
<text x="40" y="20">cumulative bugs surfaced: 241</text>
</svg>