<svg xmlns="http://www.w3.org/2000/svg" width="720" height="300" font-family="monospace" font-size="12">
<rect width="720" height="300" fill="white"/>
<polyline fill="none" stroke="#e8730a" stroke-width="2" points="40.0,257.2 168.0,254.4 500.8,240.3 526.4,237.4 552.0,231.8 577.6,212.1 603.2,186.7 628.8,147.2 654.4,90.8 680.0,40.0"/>
<circle cx="40.0" cy="257.2" r="2.5" fill="#e8730a"/>
<circle cx="168.0" cy="254.4" r="2.5" fill="#e8730a"/>
<circle cx="500.8" cy="240.3" r="2.5" fill="#e8730a"/>
<circle cx="526.4" cy="237.4" r="2.5" fill="#e8730a"/>
<circle cx="552.0" cy="231.8" r="2.5" fill="#e8730a"/>
<circle cx="577.6" cy="212.1" r="2.5" fill="#e8730a"/>
<circle cx="603.2" cy="186.7" r="2.5" fill="#e8730a"/>
<circle cx="628.8" cy="147.2" r="2.5" fill="#e8730a"/>
<circle cx="654.4" cy="90.8" r="2.5" fill="#e8730a"/>
<circle cx="680.0" cy="40.0" r="2.5" fill="#e8730a"/>
<text x="40" y="288">2026-05-20</text>
<text x="610" y="288">2026-06-14</text>
<text x="40" y="20">cumulative bugs surfaced: 78</text>
</svg>