<svg xmlns="http://www.w3.org/2000/svg" width="720" height="300" font-family="monospace" font-size="12">
<rect width="720" height="300" fill="white"/>
<polyline fill="none" stroke="#e8730a" stroke-width="2" points="40.0,256.6 168.0,253.1 500.8,235.9 526.4,232.5 552.0,225.6 577.6,201.6 603.2,170.6 628.8,122.5 654.4,50.3 680.0,40.0"/>
<circle cx="40.0" cy="256.6" r="2.5" fill="#e8730a"/>
<circle cx="168.0" cy="253.1" r="2.5" fill="#e8730a"/>
<circle cx="500.8" cy="235.9" r="2.5" fill="#e8730a"/>
<circle cx="526.4" cy="232.5" r="2.5" fill="#e8730a"/>
<circle cx="552.0" cy="225.6" r="2.5" fill="#e8730a"/>
<circle cx="577.6" cy="201.6" r="2.5" fill="#e8730a"/>
<circle cx="603.2" cy="170.6" r="2.5" fill="#e8730a"/>
<circle cx="628.8" cy="122.5" r="2.5" fill="#e8730a"/>
<circle cx="654.4" cy="50.3" r="2.5" fill="#e8730a"/>
<circle cx="680.0" cy="40.0" r="2.5" fill="#e8730a"/>
<text x="40" y="288">2026-05-20</text>
<text x="610" y="288">2026-06-14</text>
<text x="40" y="20">cumulative bugs surfaced: 64</text>
</svg>