<svg xmlns="http://www.w3.org/2000/svg" width="720" height="300" font-family="monospace" font-size="12">
<rect width="720" height="300" fill="white"/>
<polyline fill="none" stroke="#e8730a" stroke-width="2" points="40.0,257.4 168.0,254.8 500.8,241.9 526.4,239.3 552.0,234.1 577.6,216.0 603.2,192.7 628.8,156.5 654.4,104.7 680.0,40.0"/>
<circle cx="40.0" cy="257.4" r="2.5" fill="#e8730a"/>
<circle cx="168.0" cy="254.8" r="2.5" fill="#e8730a"/>
<circle cx="500.8" cy="241.9" r="2.5" fill="#e8730a"/>
<circle cx="526.4" cy="239.3" r="2.5" fill="#e8730a"/>
<circle cx="552.0" cy="234.1" r="2.5" fill="#e8730a"/>
<circle cx="577.6" cy="216.0" r="2.5" fill="#e8730a"/>
<circle cx="603.2" cy="192.7" r="2.5" fill="#e8730a"/>
<circle cx="628.8" cy="156.5" r="2.5" fill="#e8730a"/>
<circle cx="654.4" cy="104.7" r="2.5" fill="#e8730a"/>
<circle cx="680.0" cy="40.0" r="2.5" fill="#e8730a"/>
<text x="40" y="288">2026-05-20</text>
<text x="610" y="288">2026-06-14</text>
<text x="40" y="20">cumulative bugs surfaced: 85</text>
</svg>