<svg xmlns="http://www.w3.org/2000/svg" width="720" height="300" font-family="monospace" font-size="12">
<rect width="720" height="300" fill="white"/>
<polyline fill="none" stroke="#e8730a" stroke-width="2" points="40.0,256.9 168.0,253.9 500.8,238.6 526.4,235.6 552.0,229.4 577.6,208.1 603.2,180.6 628.8,137.8 654.4,73.6 680.0,40.0"/>
<circle cx="40.0" cy="256.9" r="2.5" fill="#e8730a"/>
<circle cx="168.0" cy="253.9" r="2.5" fill="#e8730a"/>
<circle cx="500.8" cy="238.6" r="2.5" fill="#e8730a"/>
<circle cx="526.4" cy="235.6" r="2.5" fill="#e8730a"/>
<circle cx="552.0" cy="229.4" r="2.5" fill="#e8730a"/>
<circle cx="577.6" cy="208.1" r="2.5" fill="#e8730a"/>
<circle cx="603.2" cy="180.6" r="2.5" fill="#e8730a"/>
<circle cx="628.8" cy="137.8" r="2.5" fill="#e8730a"/>
<circle cx="654.4" cy="73.6" r="2.5" fill="#e8730a"/>
<circle cx="680.0" cy="40.0" r="2.5" fill="#e8730a"/>
<text x="40" y="288">2026-05-20</text>
<text x="610" y="288">2026-06-14</text>
<text x="40" y="20">cumulative bugs surfaced: 72</text>
</svg>