<svg xmlns="http://www.w3.org/2000/svg" width="720" height="300" font-family="monospace" font-size="12">
<rect width="720" height="300" fill="white"/>
<polyline fill="none" stroke="#e8730a" stroke-width="2" points="40.0,259.1 112.7,258.2 301.8,253.5 316.4,252.6 330.9,250.8 345.5,244.3 360.0,236.0 374.5,223.0 389.1,204.5 403.6,175.0 418.2,168.5 432.7,167.6 447.3,159.2 461.8,148.2 476.4,135.2 490.9,119.5 505.5,116.7 520.0,113.0 621.8,111.2 636.4,97.3 650.9,86.2 665.5,52.9 680.0,40.0"/>
<circle cx="40.0" cy="259.1" r="2.5" fill="#e8730a"/>
<circle cx="112.7" cy="258.2" r="2.5" fill="#e8730a"/>
<circle cx="301.8" cy="253.5" r="2.5" fill="#e8730a"/>
<circle cx="316.4" cy="252.6" r="2.5" fill="#e8730a"/>
<circle cx="330.9" cy="250.8" r="2.5" fill="#e8730a"/>
<circle cx="345.5" cy="244.3" r="2.5" fill="#e8730a"/>
<circle cx="360.0" cy="236.0" r="2.5" fill="#e8730a"/>
<circle cx="374.5" cy="223.0" r="2.5" fill="#e8730a"/>
<circle cx="389.1" cy="204.5" r="2.5" fill="#e8730a"/>
<circle cx="403.6" cy="175.0" r="2.5" fill="#e8730a"/>
<circle cx="418.2" cy="168.5" r="2.5" fill="#e8730a"/>
<circle cx="432.7" cy="167.6" r="2.5" fill="#e8730a"/>
<circle cx="447.3" cy="159.2" r="2.5" fill="#e8730a"/>
<circle cx="461.8" cy="148.2" r="2.5" fill="#e8730a"/>
<circle cx="476.4" cy="135.2" r="2.5" fill="#e8730a"/>
<circle cx="490.9" cy="119.5" r="2.5" fill="#e8730a"/>
<circle cx="505.5" cy="116.7" r="2.5" fill="#e8730a"/>
<circle cx="520.0" cy="113.0" r="2.5" fill="#e8730a"/>
<circle cx="621.8" cy="111.2" r="2.5" fill="#e8730a"/>
<circle cx="636.4" cy="97.3" r="2.5" fill="#e8730a"/>
<circle cx="650.9" cy="86.2" r="2.5" fill="#e8730a"/>
<circle cx="665.5" cy="52.9" r="2.5" fill="#e8730a"/>
<circle cx="680.0" cy="40.0" r="2.5" fill="#e8730a"/>
<text x="40" y="288">2026-05-20</text>
<text x="610" y="288">2026-07-03</text>
<text x="40" y="20">cumulative bugs surfaced: 238</text>
</svg>