<svg xmlns="http://www.w3.org/2000/svg" width="720" height="300" font-family="monospace" font-size="12">
<rect width="720" height="300" fill="white"/>
<polyline fill="none" stroke="#e8730a" stroke-width="2" points="40.0,259.1 112.7,258.3 301.8,254.0 316.4,253.1 330.9,251.4 345.5,245.4 360.0,237.7 374.5,225.6 389.1,208.4 403.6,180.9 418.2,174.9 432.7,174.1 447.3,166.3 461.8,156.0 476.4,144.0 490.9,129.4 505.5,126.8 520.0,123.4 621.8,121.6 636.4,108.8 650.9,98.4 665.5,67.5 680.0,40.0"/>
<circle cx="40.0" cy="259.1" r="2.5" fill="#e8730a"/>
<circle cx="112.7" cy="258.3" r="2.5" fill="#e8730a"/>
<circle cx="301.8" cy="254.0" r="2.5" fill="#e8730a"/>
<circle cx="316.4" cy="253.1" r="2.5" fill="#e8730a"/>
<circle cx="330.9" cy="251.4" r="2.5" fill="#e8730a"/>
<circle cx="345.5" cy="245.4" r="2.5" fill="#e8730a"/>
<circle cx="360.0" cy="237.7" r="2.5" fill="#e8730a"/>
<circle cx="374.5" cy="225.6" r="2.5" fill="#e8730a"/>
<circle cx="389.1" cy="208.4" r="2.5" fill="#e8730a"/>
<circle cx="403.6" cy="180.9" r="2.5" fill="#e8730a"/>
<circle cx="418.2" cy="174.9" r="2.5" fill="#e8730a"/>
<circle cx="432.7" cy="174.1" r="2.5" fill="#e8730a"/>
<circle cx="447.3" cy="166.3" r="2.5" fill="#e8730a"/>
<circle cx="461.8" cy="156.0" r="2.5" fill="#e8730a"/>
<circle cx="476.4" cy="144.0" r="2.5" fill="#e8730a"/>
<circle cx="490.9" cy="129.4" r="2.5" fill="#e8730a"/>
<circle cx="505.5" cy="126.8" r="2.5" fill="#e8730a"/>
<circle cx="520.0" cy="123.4" r="2.5" fill="#e8730a"/>
<circle cx="621.8" cy="121.6" r="2.5" fill="#e8730a"/>
<circle cx="636.4" cy="108.8" r="2.5" fill="#e8730a"/>
<circle cx="650.9" cy="98.4" r="2.5" fill="#e8730a"/>
<circle cx="665.5" cy="67.5" r="2.5" fill="#e8730a"/>
<circle cx="680.0" cy="40.0" r="2.5" fill="#e8730a"/>
<text x="40" y="288">2026-05-20</text>
<text x="610" y="288">2026-07-03</text>
<text x="40" y="20">cumulative bugs surfaced: 256</text>
</svg>