<svg xmlns="http://www.w3.org/2000/svg" width="720" height="300" font-family="monospace" font-size="12">
<rect width="720" height="300" fill="white"/>
<polyline fill="none" stroke="#e8730a" stroke-width="2" points="40.0,259.8 79.5,259.6 182.2,258.5 190.1,258.3 198.0,257.9 205.9,256.5 213.8,254.6 221.7,251.7 229.6,247.6 237.5,240.9 245.4,239.5 253.3,239.3 261.2,237.4 269.1,234.9 277.0,232.0 284.9,228.5 292.8,227.9 300.7,227.0 356.0,226.6 364.0,223.5 371.9,221.0 379.8,213.6 387.7,206.3 395.6,202.8 403.5,202.4 411.4,201.3 419.3,200.1 427.2,194.9 435.1,190.7 443.0,189.1 450.9,180.8 458.8,174.4 466.7,170.0 474.6,165.4 482.5,159.8 490.4,154.9 498.3,150.5 506.2,140.6 514.1,136.8 522.0,133.9 529.9,129.8 537.8,126.9 545.7,120.9 553.6,120.2 561.5,119.2 569.4,118.8 577.3,115.7 585.2,112.2 593.1,104.1 601.0,100.3 608.9,91.0 616.8,83.5 624.7,78.4 632.6,75.2 640.5,69.7 648.4,62.6 656.3,55.6 664.2,50.0 672.1,43.9 680.0,40.0"/>
<circle cx="40.0" cy="259.8" r="2.5" fill="#e8730a"/>
<circle cx="79.5" cy="259.6" r="2.5" fill="#e8730a"/>
<circle cx="182.2" cy="258.5" r="2.5" fill="#e8730a"/>
<circle cx="190.1" cy="258.3" r="2.5" fill="#e8730a"/>
<circle cx="198.0" cy="257.9" r="2.5" fill="#e8730a"/>
<circle cx="205.9" cy="256.5" r="2.5" fill="#e8730a"/>
<circle cx="213.8" cy="254.6" r="2.5" fill="#e8730a"/>
<circle cx="221.7" cy="251.7" r="2.5" fill="#e8730a"/>
<circle cx="229.6" cy="247.6" r="2.5" fill="#e8730a"/>
<circle cx="237.5" cy="240.9" r="2.5" fill="#e8730a"/>
<circle cx="245.4" cy="239.5" r="2.5" fill="#e8730a"/>
<circle cx="253.3" cy="239.3" r="2.5" fill="#e8730a"/>
<circle cx="261.2" cy="237.4" r="2.5" fill="#e8730a"/>
<circle cx="269.1" cy="234.9" r="2.5" fill="#e8730a"/>
<circle cx="277.0" cy="232.0" r="2.5" fill="#e8730a"/>
<circle cx="284.9" cy="228.5" r="2.5" fill="#e8730a"/>
<circle cx="292.8" cy="227.9" r="2.5" fill="#e8730a"/>
<circle cx="300.7" cy="227.0" r="2.5" fill="#e8730a"/>
<circle cx="356.0" cy="226.6" r="2.5" fill="#e8730a"/>
<circle cx="364.0" cy="223.5" r="2.5" fill="#e8730a"/>
<circle cx="371.9" cy="221.0" r="2.5" fill="#e8730a"/>
<circle cx="379.8" cy="213.6" r="2.5" fill="#e8730a"/>
<circle cx="387.7" cy="206.3" r="2.5" fill="#e8730a"/>
<circle cx="395.6" cy="202.8" r="2.5" fill="#e8730a"/>
<circle cx="403.5" cy="202.4" r="2.5" fill="#e8730a"/>
<circle cx="411.4" cy="201.3" r="2.5" fill="#e8730a"/>
<circle cx="419.3" cy="200.1" r="2.5" fill="#e8730a"/>
<circle cx="427.2" cy="194.9" r="2.5" fill="#e8730a"/>
<circle cx="435.1" cy="190.7" r="2.5" fill="#e8730a"/>
<circle cx="443.0" cy="189.1" r="2.5" fill="#e8730a"/>
<circle cx="450.9" cy="180.8" r="2.5" fill="#e8730a"/>
<circle cx="458.8" cy="174.4" r="2.5" fill="#e8730a"/>
<circle cx="466.7" cy="170.0" r="2.5" fill="#e8730a"/>
<circle cx="474.6" cy="165.4" r="2.5" fill="#e8730a"/>
<circle cx="482.5" cy="159.8" r="2.5" fill="#e8730a"/>
<circle cx="490.4" cy="154.9" r="2.5" fill="#e8730a"/>
<circle cx="498.3" cy="150.5" r="2.5" fill="#e8730a"/>
<circle cx="506.2" cy="140.6" r="2.5" fill="#e8730a"/>
<circle cx="514.1" cy="136.8" r="2.5" fill="#e8730a"/>
<circle cx="522.0" cy="133.9" r="2.5" fill="#e8730a"/>
<circle cx="529.9" cy="129.8" r="2.5" fill="#e8730a"/>
<circle cx="537.8" cy="126.9" r="2.5" fill="#e8730a"/>
<circle cx="545.7" cy="120.9" r="2.5" fill="#e8730a"/>
<circle cx="553.6" cy="120.2" r="2.5" fill="#e8730a"/>
<circle cx="561.5" cy="119.2" r="2.5" fill="#e8730a"/>
<circle cx="569.4" cy="118.8" r="2.5" fill="#e8730a"/>
<circle cx="577.3" cy="115.7" r="2.5" fill="#e8730a"/>
<circle cx="585.2" cy="112.2" r="2.5" fill="#e8730a"/>
<circle cx="593.1" cy="104.1" r="2.5" fill="#e8730a"/>
<circle cx="601.0" cy="100.3" r="2.5" fill="#e8730a"/>
<circle cx="608.9" cy="91.0" r="2.5" fill="#e8730a"/>
<circle cx="616.8" cy="83.5" r="2.5" fill="#e8730a"/>
<circle cx="624.7" cy="78.4" r="2.5" fill="#e8730a"/>
<circle cx="632.6" cy="75.2" r="2.5" fill="#e8730a"/>
<circle cx="640.5" cy="69.7" r="2.5" fill="#e8730a"/>
<circle cx="648.4" cy="62.6" r="2.5" fill="#e8730a"/>
<circle cx="656.3" cy="55.6" r="2.5" fill="#e8730a"/>
<circle cx="664.2" cy="50.0" r="2.5" fill="#e8730a"/>
<circle cx="672.1" cy="43.9" r="2.5" fill="#e8730a"/>
<circle cx="680.0" cy="40.0" r="2.5" fill="#e8730a"/>
<text x="40" y="288">2026-05-20</text>
<text x="610" y="288">2026-08-09</text>
<text x="40" y="20">cumulative bugs surfaced: 1061</text>
</svg>