<svg xmlns="http://www.w3.org/2000/svg" width="720" height="300" font-family="monospace" font-size="12">
<rect width="720" height="300" fill="white"/>
<polyline fill="none" stroke="#e8730a" stroke-width="2" points="40.0,258.7 118.0,257.4 321.0,251.0 336.6,249.8 352.2,247.2 367.8,238.3 383.4,226.7 399.0,208.8 414.6,183.3 430.2,142.3 445.9,133.4 461.5,132.1 477.1,120.6 492.7,105.2 508.3,87.3 523.9,65.6 539.5,61.7 555.1,56.6 664.4,54.1 680.0,40.0"/>
<circle cx="40.0" cy="258.7" r="2.5" fill="#e8730a"/>
<circle cx="118.0" cy="257.4" r="2.5" fill="#e8730a"/>
<circle cx="321.0" cy="251.0" r="2.5" fill="#e8730a"/>
<circle cx="336.6" cy="249.8" r="2.5" fill="#e8730a"/>
<circle cx="352.2" cy="247.2" r="2.5" fill="#e8730a"/>
<circle cx="367.8" cy="238.3" r="2.5" fill="#e8730a"/>
<circle cx="383.4" cy="226.7" r="2.5" fill="#e8730a"/>
<circle cx="399.0" cy="208.8" r="2.5" fill="#e8730a"/>
<circle cx="414.6" cy="183.3" r="2.5" fill="#e8730a"/>
<circle cx="430.2" cy="142.3" r="2.5" fill="#e8730a"/>
<circle cx="445.9" cy="133.4" r="2.5" fill="#e8730a"/>
<circle cx="461.5" cy="132.1" r="2.5" fill="#e8730a"/>
<circle cx="477.1" cy="120.6" r="2.5" fill="#e8730a"/>
<circle cx="492.7" cy="105.2" r="2.5" fill="#e8730a"/>
<circle cx="508.3" cy="87.3" r="2.5" fill="#e8730a"/>
<circle cx="523.9" cy="65.6" r="2.5" fill="#e8730a"/>
<circle cx="539.5" cy="61.7" r="2.5" fill="#e8730a"/>
<circle cx="555.1" cy="56.6" r="2.5" fill="#e8730a"/>
<circle cx="664.4" cy="54.1" r="2.5" fill="#e8730a"/>
<circle cx="680.0" cy="40.0" r="2.5" fill="#e8730a"/>
<text x="40" y="288">2026-05-20</text>
<text x="610" y="288">2026-06-30</text>
<text x="40" y="20">cumulative bugs surfaced: 172</text>
</svg>