<svg xmlns="http://www.w3.org/2000/svg" width="720" height="300" font-family="monospace" font-size="12">
<rect width="720" height="300" fill="white"/>
<polyline fill="none" stroke="#e8730a" stroke-width="2" points="40.0,258.9 114.4,257.9 307.9,252.5 322.8,251.5 337.7,249.3 352.6,241.8 367.4,232.2 382.3,217.3 397.2,195.9 412.1,161.7 427.0,154.3 441.9,153.2 456.7,143.6 471.6,130.8 486.5,115.8 501.4,97.7 516.3,94.5 531.2,90.2 635.3,88.1 650.2,72.0 665.1,59.2 680.0,40.0"/>
<circle cx="40.0" cy="258.9" r="2.5" fill="#e8730a"/>
<circle cx="114.4" cy="257.9" r="2.5" fill="#e8730a"/>
<circle cx="307.9" cy="252.5" r="2.5" fill="#e8730a"/>
<circle cx="322.8" cy="251.5" r="2.5" fill="#e8730a"/>
<circle cx="337.7" cy="249.3" r="2.5" fill="#e8730a"/>
<circle cx="352.6" cy="241.8" r="2.5" fill="#e8730a"/>
<circle cx="367.4" cy="232.2" r="2.5" fill="#e8730a"/>
<circle cx="382.3" cy="217.3" r="2.5" fill="#e8730a"/>
<circle cx="397.2" cy="195.9" r="2.5" fill="#e8730a"/>
<circle cx="412.1" cy="161.7" r="2.5" fill="#e8730a"/>
<circle cx="427.0" cy="154.3" r="2.5" fill="#e8730a"/>
<circle cx="441.9" cy="153.2" r="2.5" fill="#e8730a"/>
<circle cx="456.7" cy="143.6" r="2.5" fill="#e8730a"/>
<circle cx="471.6" cy="130.8" r="2.5" fill="#e8730a"/>
<circle cx="486.5" cy="115.8" r="2.5" fill="#e8730a"/>
<circle cx="501.4" cy="97.7" r="2.5" fill="#e8730a"/>
<circle cx="516.3" cy="94.5" r="2.5" fill="#e8730a"/>
<circle cx="531.2" cy="90.2" r="2.5" fill="#e8730a"/>
<circle cx="635.3" cy="88.1" r="2.5" fill="#e8730a"/>
<circle cx="650.2" cy="72.0" r="2.5" fill="#e8730a"/>
<circle cx="665.1" cy="59.2" r="2.5" fill="#e8730a"/>
<circle cx="680.0" cy="40.0" r="2.5" fill="#e8730a"/>
<text x="40" y="288">2026-05-20</text>
<text x="610" y="288">2026-07-02</text>
<text x="40" y="20">cumulative bugs surfaced: 206</text>
</svg>