<svg xmlns="http://www.w3.org/2000/svg" width="720" height="300" font-family="monospace" font-size="12">
<rect width="720" height="300" fill="white"/>
<polyline fill="none" stroke="#e8730a" stroke-width="2" points="40.0,259.8 78.1,259.6 177.1,258.6 184.8,258.5 192.4,258.1 200.0,256.7 207.6,255.0 215.2,252.3 222.9,248.4 230.5,242.2 238.1,240.9 245.7,240.7 253.3,238.9 261.0,236.6 268.6,233.9 276.2,230.6 283.8,230.0 291.4,229.3 344.8,228.9 352.4,226.0 360.0,223.7 367.6,216.7 375.2,209.9 382.9,206.6 390.5,206.3 398.1,205.3 405.7,204.1 413.3,199.3 421.0,195.4 428.6,193.9 436.2,186.2 443.8,180.2 451.4,176.1 459.0,171.8 466.7,166.6 474.3,162.0 481.9,157.9 489.5,148.6 497.1,145.2 504.8,142.5 512.4,138.6 520.0,135.9 527.6,130.3 535.2,129.7 542.9,128.7 550.5,128.3 558.1,125.4 565.7,122.2 573.3,114.6 581.0,111.1 588.6,102.4 596.2,95.5 603.8,90.7 611.4,87.8 619.0,82.5 626.7,76.0 634.3,69.4 641.9,64.2 649.5,58.6 657.1,54.5 664.8,52.0 672.4,45.2 680.0,40.0"/>
<circle cx="40.0" cy="259.8" r="2.5" fill="#e8730a"/>
<circle cx="78.1" cy="259.6" r="2.5" fill="#e8730a"/>
<circle cx="177.1" cy="258.6" r="2.5" fill="#e8730a"/>
<circle cx="184.8" cy="258.5" r="2.5" fill="#e8730a"/>
<circle cx="192.4" cy="258.1" r="2.5" fill="#e8730a"/>
<circle cx="200.0" cy="256.7" r="2.5" fill="#e8730a"/>
<circle cx="207.6" cy="255.0" r="2.5" fill="#e8730a"/>
<circle cx="215.2" cy="252.3" r="2.5" fill="#e8730a"/>
<circle cx="222.9" cy="248.4" r="2.5" fill="#e8730a"/>
<circle cx="230.5" cy="242.2" r="2.5" fill="#e8730a"/>
<circle cx="238.1" cy="240.9" r="2.5" fill="#e8730a"/>
<circle cx="245.7" cy="240.7" r="2.5" fill="#e8730a"/>
<circle cx="253.3" cy="238.9" r="2.5" fill="#e8730a"/>
<circle cx="261.0" cy="236.6" r="2.5" fill="#e8730a"/>
<circle cx="268.6" cy="233.9" r="2.5" fill="#e8730a"/>
<circle cx="276.2" cy="230.6" r="2.5" fill="#e8730a"/>
<circle cx="283.8" cy="230.0" r="2.5" fill="#e8730a"/>
<circle cx="291.4" cy="229.3" r="2.5" fill="#e8730a"/>
<circle cx="344.8" cy="228.9" r="2.5" fill="#e8730a"/>
<circle cx="352.4" cy="226.0" r="2.5" fill="#e8730a"/>
<circle cx="360.0" cy="223.7" r="2.5" fill="#e8730a"/>
<circle cx="367.6" cy="216.7" r="2.5" fill="#e8730a"/>
<circle cx="375.2" cy="209.9" r="2.5" fill="#e8730a"/>
<circle cx="382.9" cy="206.6" r="2.5" fill="#e8730a"/>
<circle cx="390.5" cy="206.3" r="2.5" fill="#e8730a"/>
<circle cx="398.1" cy="205.3" r="2.5" fill="#e8730a"/>
<circle cx="405.7" cy="204.1" r="2.5" fill="#e8730a"/>
<circle cx="413.3" cy="199.3" r="2.5" fill="#e8730a"/>
<circle cx="421.0" cy="195.4" r="2.5" fill="#e8730a"/>
<circle cx="428.6" cy="193.9" r="2.5" fill="#e8730a"/>
<circle cx="436.2" cy="186.2" r="2.5" fill="#e8730a"/>
<circle cx="443.8" cy="180.2" r="2.5" fill="#e8730a"/>
<circle cx="451.4" cy="176.1" r="2.5" fill="#e8730a"/>
<circle cx="459.0" cy="171.8" r="2.5" fill="#e8730a"/>
<circle cx="466.7" cy="166.6" r="2.5" fill="#e8730a"/>
<circle cx="474.3" cy="162.0" r="2.5" fill="#e8730a"/>
<circle cx="481.9" cy="157.9" r="2.5" fill="#e8730a"/>
<circle cx="489.5" cy="148.6" r="2.5" fill="#e8730a"/>
<circle cx="497.1" cy="145.2" r="2.5" fill="#e8730a"/>
<circle cx="504.8" cy="142.5" r="2.5" fill="#e8730a"/>
<circle cx="512.4" cy="138.6" r="2.5" fill="#e8730a"/>
<circle cx="520.0" cy="135.9" r="2.5" fill="#e8730a"/>
<circle cx="527.6" cy="130.3" r="2.5" fill="#e8730a"/>
<circle cx="535.2" cy="129.7" r="2.5" fill="#e8730a"/>
<circle cx="542.9" cy="128.7" r="2.5" fill="#e8730a"/>
<circle cx="550.5" cy="128.3" r="2.5" fill="#e8730a"/>
<circle cx="558.1" cy="125.4" r="2.5" fill="#e8730a"/>
<circle cx="565.7" cy="122.2" r="2.5" fill="#e8730a"/>
<circle cx="573.3" cy="114.6" r="2.5" fill="#e8730a"/>
<circle cx="581.0" cy="111.1" r="2.5" fill="#e8730a"/>
<circle cx="588.6" cy="102.4" r="2.5" fill="#e8730a"/>
<circle cx="596.2" cy="95.5" r="2.5" fill="#e8730a"/>
<circle cx="603.8" cy="90.7" r="2.5" fill="#e8730a"/>
<circle cx="611.4" cy="87.8" r="2.5" fill="#e8730a"/>
<circle cx="619.0" cy="82.5" r="2.5" fill="#e8730a"/>
<circle cx="626.7" cy="76.0" r="2.5" fill="#e8730a"/>
<circle cx="634.3" cy="69.4" r="2.5" fill="#e8730a"/>
<circle cx="641.9" cy="64.2" r="2.5" fill="#e8730a"/>
<circle cx="649.5" cy="58.6" r="2.5" fill="#e8730a"/>
<circle cx="657.1" cy="54.5" r="2.5" fill="#e8730a"/>
<circle cx="664.8" cy="52.0" r="2.5" fill="#e8730a"/>
<circle cx="672.4" cy="45.2" r="2.5" fill="#e8730a"/>
<circle cx="680.0" cy="40.0" r="2.5" fill="#e8730a"/>
<text x="40" y="288">2026-05-20</text>
<text x="610" y="288">2026-08-12</text>
<text x="40" y="20">cumulative bugs surfaced: 1138</text>
</svg>