<svg xmlns="http://www.w3.org/2000/svg" width="720" height="300" font-family="monospace" font-size="12">
<rect width="720" height="300" fill="white"/>
<polyline fill="none" stroke="#e8730a" stroke-width="2" points="40.0,257.4 168.0,254.8 500.8,241.7 526.4,239.0 552.0,233.8 577.6,215.5 603.2,191.9 628.8,155.2 654.4,102.9 680.0,40.0"/>
<circle cx="40.0" cy="257.4" r="2.5" fill="#e8730a"/>
<circle cx="168.0" cy="254.8" r="2.5" fill="#e8730a"/>
<circle cx="500.8" cy="241.7" r="2.5" fill="#e8730a"/>
<circle cx="526.4" cy="239.0" r="2.5" fill="#e8730a"/>
<circle cx="552.0" cy="233.8" r="2.5" fill="#e8730a"/>
<circle cx="577.6" cy="215.5" r="2.5" fill="#e8730a"/>
<circle cx="603.2" cy="191.9" r="2.5" fill="#e8730a"/>
<circle cx="628.8" cy="155.2" r="2.5" fill="#e8730a"/>
<circle cx="654.4" cy="102.9" r="2.5" fill="#e8730a"/>
<circle cx="680.0" cy="40.0" r="2.5" fill="#e8730a"/>
<text x="40" y="288">2026-05-20</text>
<text x="610" y="288">2026-06-14</text>
<text x="40" y="20">cumulative bugs surfaced: 84</text>
</svg>