<svg xmlns="http://www.w3.org/2000/svg" width="720" height="300" font-family="monospace" font-size="12">
<rect width="720" height="300" fill="white"/>
<polyline fill="none" stroke="#e8730a" stroke-width="2" points="40.0,258.6 120.0,257.2 328.0,250.4 344.0,249.0 360.0,246.2 376.0,236.6 392.0,224.2 408.0,205.0 424.0,177.5 440.0,133.5 456.0,123.9 472.0,122.5 488.0,110.1 504.0,93.6 520.0,74.4 536.0,51.0 552.0,46.9 568.0,41.4 680.0,40.0"/>
<circle cx="40.0" cy="258.6" r="2.5" fill="#e8730a"/>
<circle cx="120.0" cy="257.2" r="2.5" fill="#e8730a"/>
<circle cx="328.0" cy="250.4" r="2.5" fill="#e8730a"/>
<circle cx="344.0" cy="249.0" r="2.5" fill="#e8730a"/>
<circle cx="360.0" cy="246.2" r="2.5" fill="#e8730a"/>
<circle cx="376.0" cy="236.6" r="2.5" fill="#e8730a"/>
<circle cx="392.0" cy="224.2" r="2.5" fill="#e8730a"/>
<circle cx="408.0" cy="205.0" r="2.5" fill="#e8730a"/>
<circle cx="424.0" cy="177.5" r="2.5" fill="#e8730a"/>
<circle cx="440.0" cy="133.5" r="2.5" fill="#e8730a"/>
<circle cx="456.0" cy="123.9" r="2.5" fill="#e8730a"/>
<circle cx="472.0" cy="122.5" r="2.5" fill="#e8730a"/>
<circle cx="488.0" cy="110.1" r="2.5" fill="#e8730a"/>
<circle cx="504.0" cy="93.6" r="2.5" fill="#e8730a"/>
<circle cx="520.0" cy="74.4" r="2.5" fill="#e8730a"/>
<circle cx="536.0" cy="51.0" r="2.5" fill="#e8730a"/>
<circle cx="552.0" cy="46.9" r="2.5" fill="#e8730a"/>
<circle cx="568.0" cy="41.4" r="2.5" fill="#e8730a"/>
<circle cx="680.0" cy="40.0" r="2.5" fill="#e8730a"/>
<text x="40" y="288">2026-05-20</text>
<text x="610" y="288">2026-06-29</text>
<text x="40" y="20">cumulative bugs surfaced: 160</text>
</svg>