<svg xmlns="http://www.w3.org/2000/svg" width="720" height="300" font-family="monospace" font-size="12">
<rect width="720" height="300" fill="white"/>
<polyline fill="none" stroke="#e8730a" stroke-width="2" points="40.0,258.7 118.0,257.4 321.0,250.8 336.6,249.5 352.2,246.9 367.8,237.7 383.4,226.0 399.0,207.6 414.6,181.4 430.2,139.5 445.9,130.4 461.5,129.0 477.1,117.3 492.7,101.5 508.3,83.2 523.9,61.0 539.5,57.0 555.1,51.8 664.4,49.2 680.0,40.0"/>
<circle cx="40.0" cy="258.7" r="2.5" fill="#e8730a"/>
<circle cx="118.0" cy="257.4" r="2.5" fill="#e8730a"/>
<circle cx="321.0" cy="250.8" r="2.5" fill="#e8730a"/>
<circle cx="336.6" cy="249.5" r="2.5" fill="#e8730a"/>
<circle cx="352.2" cy="246.9" r="2.5" fill="#e8730a"/>
<circle cx="367.8" cy="237.7" r="2.5" fill="#e8730a"/>
<circle cx="383.4" cy="226.0" r="2.5" fill="#e8730a"/>
<circle cx="399.0" cy="207.6" r="2.5" fill="#e8730a"/>
<circle cx="414.6" cy="181.4" r="2.5" fill="#e8730a"/>
<circle cx="430.2" cy="139.5" r="2.5" fill="#e8730a"/>
<circle cx="445.9" cy="130.4" r="2.5" fill="#e8730a"/>
<circle cx="461.5" cy="129.0" r="2.5" fill="#e8730a"/>
<circle cx="477.1" cy="117.3" r="2.5" fill="#e8730a"/>
<circle cx="492.7" cy="101.5" r="2.5" fill="#e8730a"/>
<circle cx="508.3" cy="83.2" r="2.5" fill="#e8730a"/>
<circle cx="523.9" cy="61.0" r="2.5" fill="#e8730a"/>
<circle cx="539.5" cy="57.0" r="2.5" fill="#e8730a"/>
<circle cx="555.1" cy="51.8" r="2.5" fill="#e8730a"/>
<circle cx="664.4" cy="49.2" r="2.5" fill="#e8730a"/>
<circle cx="680.0" cy="40.0" r="2.5" fill="#e8730a"/>
<text x="40" y="288">2026-05-20</text>
<text x="610" y="288">2026-06-30</text>
<text x="40" y="20">cumulative bugs surfaced: 168</text>
</svg>