<svg xmlns="http://www.w3.org/2000/svg" width="720" height="300" font-family="monospace" font-size="12">
<rect width="720" height="300" fill="white"/>
<polyline fill="none" stroke="#e8730a" stroke-width="2" points="40.0,259.2 106.7,258.5 280.0,254.6 293.3,253.8 306.7,252.3 320.0,246.8 333.3,239.9 346.7,229.0 360.0,213.5 373.3,188.7 386.7,183.3 400.0,182.5 413.3,175.6 426.7,166.3 440.0,155.4 453.3,142.3 466.7,139.9 480.0,136.8 573.3,135.3 586.7,123.7 600.0,114.4 613.3,86.5 626.7,59.4 640.0,46.2 653.3,44.6 666.7,41.5 680.0,40.0"/>
<circle cx="40.0" cy="259.2" r="2.5" fill="#e8730a"/>
<circle cx="106.7" cy="258.5" r="2.5" fill="#e8730a"/>
<circle cx="280.0" cy="254.6" r="2.5" fill="#e8730a"/>
<circle cx="293.3" cy="253.8" r="2.5" fill="#e8730a"/>
<circle cx="306.7" cy="252.3" r="2.5" fill="#e8730a"/>
<circle cx="320.0" cy="246.8" r="2.5" fill="#e8730a"/>
<circle cx="333.3" cy="239.9" r="2.5" fill="#e8730a"/>
<circle cx="346.7" cy="229.0" r="2.5" fill="#e8730a"/>
<circle cx="360.0" cy="213.5" r="2.5" fill="#e8730a"/>
<circle cx="373.3" cy="188.7" r="2.5" fill="#e8730a"/>
<circle cx="386.7" cy="183.3" r="2.5" fill="#e8730a"/>
<circle cx="400.0" cy="182.5" r="2.5" fill="#e8730a"/>
<circle cx="413.3" cy="175.6" r="2.5" fill="#e8730a"/>
<circle cx="426.7" cy="166.3" r="2.5" fill="#e8730a"/>
<circle cx="440.0" cy="155.4" r="2.5" fill="#e8730a"/>
<circle cx="453.3" cy="142.3" r="2.5" fill="#e8730a"/>
<circle cx="466.7" cy="139.9" r="2.5" fill="#e8730a"/>
<circle cx="480.0" cy="136.8" r="2.5" fill="#e8730a"/>
<circle cx="573.3" cy="135.3" r="2.5" fill="#e8730a"/>
<circle cx="586.7" cy="123.7" r="2.5" fill="#e8730a"/>
<circle cx="600.0" cy="114.4" r="2.5" fill="#e8730a"/>
<circle cx="613.3" cy="86.5" r="2.5" fill="#e8730a"/>
<circle cx="626.7" cy="59.4" r="2.5" fill="#e8730a"/>
<circle cx="640.0" cy="46.2" r="2.5" fill="#e8730a"/>
<circle cx="653.3" cy="44.6" r="2.5" fill="#e8730a"/>
<circle cx="666.7" cy="41.5" r="2.5" fill="#e8730a"/>
<circle cx="680.0" cy="40.0" r="2.5" fill="#e8730a"/>
<text x="40" y="288">2026-05-20</text>
<text x="610" y="288">2026-07-07</text>
<text x="40" y="20">cumulative bugs surfaced: 284</text>
</svg>